<svg width="432" height="482" viewBox="0 0 432 482" fill="none" xmlns="http://www.w3.org/2000/svg">
<path d="M377.39 331.749C374.458 328.941 370.612 327.285 366.557 327.084C362.503 326.883 358.512 328.152 355.317 330.657L342.256 291.123C341.166 287.78 339.132 284.825 336.399 282.612C333.667 280.4 330.352 279.026 326.856 278.656L263.929 271.836C262.298 271.665 260.649 271.861 259.104 272.409C257.558 272.957 256.155 273.844 254.996 275.005C253.837 276.166 252.953 277.571 252.408 279.117C251.862 280.664 251.669 282.313 251.843 283.943L258.663 346.856C259.029 350.354 260.402 353.67 262.614 356.404C264.827 359.137 267.785 361.17 271.13 362.256L310.657 375.236C308.237 378.195 306.916 381.9 306.917 385.723C306.93 390.095 308.673 394.284 311.764 397.375C314.856 400.466 319.045 402.209 323.417 402.223C327.793 402.208 331.986 400.466 335.084 397.375L377.397 355.069C378.929 353.538 380.145 351.719 380.974 349.718C381.803 347.717 382.23 345.572 382.23 343.406C382.23 341.239 381.803 339.094 380.974 337.093C380.145 335.092 378.929 333.274 377.397 331.742L377.39 331.749ZM273.403 355.289C271.402 354.628 269.634 353.405 268.308 351.767C266.982 350.129 266.154 348.144 265.923 346.049L259.323 284.523L288.73 313.929C288.205 315.466 288.12 317.118 288.484 318.7C288.848 320.282 289.647 321.731 290.791 322.883C291.579 323.706 292.524 324.363 293.57 324.815C294.616 325.267 295.741 325.507 296.881 325.518C298.02 325.53 299.15 325.314 300.205 324.883C301.26 324.452 302.218 323.815 303.023 323.008C303.828 322.202 304.465 321.243 304.894 320.188C305.324 319.133 305.539 318.002 305.526 316.863C305.513 315.723 305.272 314.598 304.818 313.553C304.365 312.508 303.707 311.564 302.883 310.776C301.751 309.63 300.313 308.835 298.741 308.485C297.168 308.135 295.528 308.245 294.017 308.803L264.537 279.323L326.064 285.923C328.165 286.134 330.158 286.954 331.799 288.283C333.439 289.612 334.655 291.392 335.297 293.403L349.457 336.377L316.384 369.45L273.403 355.289ZM359.269 336.883C360.556 335.607 362.192 334.742 363.97 334.395C365.748 334.049 367.589 334.237 369.26 334.936C370.931 335.635 372.358 336.814 373.36 338.323C374.362 339.833 374.894 341.605 374.889 343.417C374.888 344.618 374.648 345.807 374.184 346.915C373.719 348.023 373.039 349.027 372.183 349.87L329.863 392.183C328.119 393.858 325.794 394.793 323.376 394.793C320.958 394.793 318.634 393.858 316.89 392.183C315.194 390.464 314.242 388.145 314.242 385.73C314.242 383.315 315.194 380.996 316.89 379.277L359.269 336.883Z" fill="black"/>
<path d="M273.375 173.719V382.663C273.375 389.907 273.375 393.538 271.049 394.772C268.722 396.023 265.708 394.014 259.68 389.995L225.382 367.136C223.02 365.549 221.839 364.774 220.5 364.774C219.161 364.774 217.98 365.549 215.618 367.136L172.507 395.864C170.145 397.451 168.964 398.226 167.625 398.226C166.286 398.226 165.105 397.451 162.743 395.864L119.632 367.136C117.27 365.549 116.089 364.774 114.75 364.774C113.411 364.774 112.23 365.549 109.868 367.136L75.5696 389.995C69.5419 394.014 66.528 396.023 64.2015 394.772C61.875 393.538 61.875 389.907 61.875 382.663V152.375C61.875 119.134 61.875 102.531 72.2032 92.2032C82.5315 81.875 99.1342 81.875 132.375 81.875H326.25L320.469 85.7349C297.416 101.104 285.889 108.788 279.632 120.474C273.375 132.159 273.375 146.03 273.375 173.719Z" fill="black" fill-opacity="0.25"/>
<path d="M273.375 134.75C273.375 120.727 278.946 107.278 288.862 97.3617C298.778 87.4457 312.227 81.875 326.25 81.875C340.273 81.875 353.722 87.4457 363.638 97.3617C373.554 107.278 379.125 120.727 379.125 134.75V170C379.125 174.674 377.268 179.157 373.963 182.463C370.657 185.768 366.174 187.625 361.5 187.625H282.188C279.85 187.625 277.609 186.697 275.956 185.044C274.303 183.391 273.375 181.15 273.375 178.812V134.75Z" fill="black"/>
<path d="M105.938 196.438H229.312M105.938 249.312H176.438M105.938 302.188H211.688" stroke="black" stroke-linecap="round"/>
</svg>
