<svg width="1607" height="578" viewBox="0 0 1607 578" fill="none" xmlns="http://www.w3.org/2000/svg">
<mask id="path-1-outside-1_8_12" maskUnits="userSpaceOnUse" x="1362" y="241" width="106" height="79" fill="black">
<rect fill="white" x="1362" y="241" width="106" height="79"/>
<path d="M1363.7 317V263.4H1371.2V317H1363.7ZM1363.7 253.5V242.5H1371.2V253.5H1363.7ZM1407.05 317.6C1402.25 317.6 1398.55 316.2 1395.95 313.4C1393.35 310.6 1392.05 306.6 1392.05 301.4V270.9H1382.15V263.4H1384.65C1386.92 263.4 1388.72 262.667 1390.05 261.2C1391.38 259.667 1392.05 257.767 1392.05 255.5V251H1399.55V263.4H1411.35V270.9H1399.55V301.4C1399.55 303.2 1399.82 304.8 1400.35 306.2C1400.88 307.533 1401.78 308.6 1403.05 309.4C1404.38 310.2 1406.15 310.6 1408.35 310.6C1408.88 310.6 1409.52 310.567 1410.25 310.5C1410.98 310.433 1411.62 310.367 1412.15 310.3V317C1411.35 317.2 1410.45 317.333 1409.45 317.4C1408.45 317.533 1407.65 317.6 1407.05 317.6ZM1439.84 318.2C1436.44 318.2 1433.41 317.567 1430.74 316.3C1428.08 314.967 1425.98 313.167 1424.44 310.9C1422.91 308.633 1422.14 306.033 1422.14 303.1C1422.14 300.3 1422.74 297.767 1423.94 295.5C1425.14 293.167 1427.01 291.2 1429.54 289.6C1432.08 288 1435.31 286.867 1439.24 286.2L1460.24 282.7V289.5L1441.04 292.7C1437.18 293.367 1434.38 294.6 1432.64 296.4C1430.98 298.2 1430.14 300.333 1430.14 302.8C1430.14 305.2 1431.08 307.233 1432.94 308.9C1434.88 310.567 1437.34 311.4 1440.34 311.4C1444.01 311.4 1447.21 310.633 1449.94 309.1C1452.68 307.5 1454.81 305.367 1456.34 302.7C1457.88 300.033 1458.64 297.067 1458.64 293.8V280.2C1458.64 277 1457.48 274.4 1455.14 272.4C1452.81 270.4 1449.78 269.4 1446.04 269.4C1442.78 269.4 1439.91 270.233 1437.44 271.9C1434.98 273.5 1433.14 275.6 1431.94 278.2L1425.14 274.5C1426.14 272.233 1427.71 270.167 1429.84 268.3C1432.04 266.433 1434.54 264.967 1437.34 263.9C1440.14 262.767 1443.04 262.2 1446.04 262.2C1449.98 262.2 1453.44 262.967 1456.44 264.5C1459.51 266.033 1461.88 268.167 1463.54 270.9C1465.28 273.567 1466.14 276.667 1466.14 280.2V317H1458.64V306.3L1459.74 307.4C1458.81 309.4 1457.34 311.233 1455.34 312.9C1453.41 314.5 1451.11 315.8 1448.44 316.8C1445.84 317.733 1442.98 318.2 1439.84 318.2Z"/>
</mask>
<path d="M1363.7 317V263.4H1371.2V317H1363.7ZM1363.7 253.5V242.5H1371.2V253.5H1363.7ZM1407.05 317.6C1402.25 317.6 1398.55 316.2 1395.95 313.4C1393.35 310.6 1392.05 306.6 1392.05 301.4V270.9H1382.15V263.4H1384.65C1386.92 263.4 1388.72 262.667 1390.05 261.2C1391.38 259.667 1392.05 257.767 1392.05 255.5V251H1399.55V263.4H1411.35V270.9H1399.55V301.4C1399.55 303.2 1399.82 304.8 1400.35 306.2C1400.88 307.533 1401.78 308.6 1403.05 309.4C1404.38 310.2 1406.15 310.6 1408.35 310.6C1408.88 310.6 1409.52 310.567 1410.25 310.5C1410.98 310.433 1411.62 310.367 1412.15 310.3V317C1411.35 317.2 1410.45 317.333 1409.45 317.4C1408.45 317.533 1407.65 317.6 1407.05 317.6ZM1439.84 318.2C1436.44 318.2 1433.41 317.567 1430.74 316.3C1428.08 314.967 1425.98 313.167 1424.44 310.9C1422.91 308.633 1422.14 306.033 1422.14 303.1C1422.14 300.3 1422.74 297.767 1423.94 295.5C1425.14 293.167 1427.01 291.2 1429.54 289.6C1432.08 288 1435.31 286.867 1439.24 286.2L1460.24 282.7V289.5L1441.04 292.7C1437.18 293.367 1434.38 294.6 1432.64 296.4C1430.98 298.2 1430.14 300.333 1430.14 302.8C1430.14 305.2 1431.08 307.233 1432.94 308.9C1434.88 310.567 1437.34 311.4 1440.34 311.4C1444.01 311.4 1447.21 310.633 1449.94 309.1C1452.68 307.5 1454.81 305.367 1456.34 302.7C1457.88 300.033 1458.64 297.067 1458.64 293.8V280.2C1458.64 277 1457.48 274.4 1455.14 272.4C1452.81 270.4 1449.78 269.4 1446.04 269.4C1442.78 269.4 1439.91 270.233 1437.44 271.9C1434.98 273.5 1433.14 275.6 1431.94 278.2L1425.14 274.5C1426.14 272.233 1427.71 270.167 1429.84 268.3C1432.04 266.433 1434.54 264.967 1437.34 263.9C1440.14 262.767 1443.04 262.2 1446.04 262.2C1449.98 262.2 1453.44 262.967 1456.44 264.5C1459.51 266.033 1461.88 268.167 1463.54 270.9C1465.28 273.567 1466.14 276.667 1466.14 280.2V317H1458.64V306.3L1459.74 307.4C1458.81 309.4 1457.34 311.233 1455.34 312.9C1453.41 314.5 1451.11 315.8 1448.44 316.8C1445.84 317.733 1442.98 318.2 1439.84 318.2Z" fill="black"/>
<path d="M1363.7 317H1362.7V318H1363.7V317ZM1363.7 263.4V262.4H1362.7V263.4H1363.7ZM1371.2 263.4H1372.2V262.4H1371.2V263.4ZM1371.2 317V318H1372.2V317H1371.2ZM1363.7 253.5H1362.7V254.5H1363.7V253.5ZM1363.7 242.5V241.5H1362.7V242.5H1363.7ZM1371.2 242.5H1372.2V241.5H1371.2V242.5ZM1371.2 253.5V254.5H1372.2V253.5H1371.2ZM1364.7 317V263.4H1362.7V317H1364.7ZM1363.7 264.4H1371.2V262.4H1363.7V264.4ZM1370.2 263.4V317H1372.2V263.4H1370.2ZM1371.2 316H1363.7V318H1371.2V316ZM1364.7 253.5V242.5H1362.7V253.5H1364.7ZM1363.7 243.5H1371.2V241.5H1363.7V243.5ZM1370.2 242.5V253.5H1372.2V242.5H1370.2ZM1371.2 252.5H1363.7V254.5H1371.2V252.5ZM1395.95 313.4L1396.68 312.72L1396.68 312.72L1395.95 313.4ZM1392.05 270.9H1393.05V269.9H1392.05V270.9ZM1382.15 270.9H1381.15V271.9H1382.15V270.9ZM1382.15 263.4V262.4H1381.15V263.4H1382.15ZM1390.05 261.2L1390.79 261.873L1390.8 261.865L1390.81 261.856L1390.05 261.2ZM1392.05 251V250H1391.05V251H1392.05ZM1399.55 251H1400.55V250H1399.55V251ZM1399.55 263.4H1398.55V264.4H1399.55V263.4ZM1411.35 263.4H1412.35V262.4H1411.35V263.4ZM1411.35 270.9V271.9H1412.35V270.9H1411.35ZM1399.55 270.9V269.9H1398.55V270.9H1399.55ZM1400.35 306.2L1399.42 306.556L1399.42 306.564L1399.42 306.571L1400.35 306.2ZM1403.05 309.4L1402.52 310.245L1402.53 310.252L1402.54 310.257L1403.05 309.4ZM1410.25 310.5L1410.16 309.504L1410.16 309.504L1410.25 310.5ZM1412.15 310.3H1413.15V309.167L1412.03 309.308L1412.15 310.3ZM1412.15 317L1412.39 317.97L1413.15 317.781V317H1412.15ZM1409.45 317.4L1409.39 316.402L1409.35 316.404L1409.32 316.409L1409.45 317.4ZM1407.05 316.6C1402.45 316.6 1399.05 315.266 1396.68 312.72L1395.22 314.08C1398.05 317.134 1402.05 318.6 1407.05 318.6V316.6ZM1396.68 312.72C1394.31 310.163 1393.05 306.44 1393.05 301.4H1391.05C1391.05 306.76 1392.39 311.037 1395.22 314.08L1396.68 312.72ZM1393.05 301.4V270.9H1391.05V301.4H1393.05ZM1392.05 269.9H1382.15V271.9H1392.05V269.9ZM1383.15 270.9V263.4H1381.15V270.9H1383.15ZM1382.15 264.4H1384.65V262.4H1382.15V264.4ZM1384.65 264.4C1387.16 264.4 1389.24 263.579 1390.79 261.873L1389.31 260.527C1388.2 261.755 1386.68 262.4 1384.65 262.4V264.4ZM1390.81 261.856C1392.32 260.12 1393.05 257.978 1393.05 255.5H1391.05C1391.05 257.555 1390.45 259.214 1389.3 260.544L1390.81 261.856ZM1393.05 255.5V251H1391.05V255.5H1393.05ZM1392.05 252H1399.55V250H1392.05V252ZM1398.55 251V263.4H1400.55V251H1398.55ZM1399.55 264.4H1411.35V262.4H1399.55V264.4ZM1410.35 263.4V270.9H1412.35V263.4H1410.35ZM1411.35 269.9H1399.55V271.9H1411.35V269.9ZM1398.55 270.9V301.4H1400.55V270.9H1398.55ZM1398.55 301.4C1398.55 303.298 1398.83 305.022 1399.42 306.556L1401.29 305.844C1400.8 304.578 1400.55 303.102 1400.55 301.4H1398.55ZM1399.42 306.571C1400.04 308.109 1401.08 309.338 1402.52 310.245L1403.59 308.555C1402.49 307.862 1401.73 306.957 1401.28 305.829L1399.42 306.571ZM1402.54 310.257C1404.08 311.182 1406.04 311.6 1408.35 311.6V309.6C1406.26 309.6 1404.69 309.218 1403.57 308.543L1402.54 310.257ZM1408.35 311.6C1408.92 311.6 1409.59 311.564 1410.34 311.496L1410.16 309.504C1409.45 309.569 1408.85 309.6 1408.35 309.6V311.6ZM1410.34 311.496C1411.08 311.429 1411.73 311.361 1412.28 311.292L1412.03 309.308C1411.51 309.373 1410.89 309.438 1410.16 309.504L1410.34 311.496ZM1411.15 310.3V317H1413.15V310.3H1411.15ZM1411.91 316.03C1411.18 316.213 1410.34 316.339 1409.39 316.402L1409.52 318.398C1410.57 318.328 1411.53 318.187 1412.39 317.97L1411.91 316.03ZM1409.32 316.409C1408.34 316.54 1407.59 316.6 1407.05 316.6V318.6C1407.72 318.6 1408.57 318.527 1409.58 318.391L1409.32 316.409ZM1430.74 316.3L1430.3 317.194L1430.31 317.199L1430.32 317.203L1430.74 316.3ZM1424.44 310.9L1423.62 311.46L1423.62 311.46L1424.44 310.9ZM1423.94 295.5L1424.83 295.968L1424.83 295.957L1423.94 295.5ZM1429.54 289.6L1429.01 288.755L1429.01 288.755L1429.54 289.6ZM1439.24 286.2L1439.08 285.214L1439.08 285.214L1439.24 286.2ZM1460.24 282.7H1461.24V281.52L1460.08 281.714L1460.24 282.7ZM1460.24 289.5L1460.41 290.486L1461.24 290.347V289.5H1460.24ZM1441.04 292.7L1440.88 291.714L1440.87 291.715L1441.04 292.7ZM1432.64 296.4L1431.92 295.706L1431.92 295.713L1431.91 295.721L1432.64 296.4ZM1432.94 308.9L1432.28 309.646L1432.29 309.652L1432.29 309.657L1432.94 308.9ZM1449.94 309.1L1450.43 309.972L1450.44 309.968L1450.45 309.963L1449.94 309.1ZM1456.34 302.7L1457.21 303.198L1457.21 303.198L1456.34 302.7ZM1437.44 271.9L1437.99 272.739L1438 272.734L1438 272.729L1437.44 271.9ZM1431.94 278.2L1431.47 279.078L1432.4 279.589L1432.85 278.619L1431.94 278.2ZM1425.14 274.5L1424.23 274.096L1423.86 274.938L1424.67 275.378L1425.14 274.5ZM1429.84 268.3L1429.2 267.537L1429.19 267.542L1429.19 267.547L1429.84 268.3ZM1437.34 263.9L1437.7 264.834L1437.71 264.831L1437.72 264.827L1437.34 263.9ZM1456.44 264.5L1455.99 265.39L1456 265.394L1456.44 264.5ZM1463.54 270.9L1462.69 271.421L1462.7 271.433L1462.71 271.445L1463.54 270.9ZM1466.14 317V318H1467.14V317H1466.14ZM1458.64 317H1457.64V318H1458.64V317ZM1458.64 306.3L1459.35 305.593L1457.64 303.886V306.3H1458.64ZM1459.74 307.4L1460.65 307.823L1460.95 307.188L1460.45 306.693L1459.74 307.4ZM1455.34 312.9L1455.98 313.67L1455.98 313.668L1455.34 312.9ZM1448.44 316.8L1448.78 317.741L1448.8 317.736L1448.44 316.8ZM1439.84 317.2C1436.57 317.2 1433.69 316.591 1431.17 315.397L1430.32 317.203C1433.14 318.543 1436.32 319.2 1439.84 319.2V317.2ZM1431.19 315.406C1428.66 314.142 1426.7 312.452 1425.27 310.34L1423.62 311.46C1425.25 313.882 1427.49 315.791 1430.3 317.194L1431.19 315.406ZM1425.27 310.34C1423.86 308.251 1423.14 305.849 1423.14 303.1H1421.14C1421.14 306.218 1421.96 309.016 1423.62 311.46L1425.27 310.34ZM1423.14 303.1C1423.14 300.448 1423.71 298.077 1424.83 295.968L1423.06 295.032C1421.78 297.456 1421.14 300.152 1421.14 303.1H1423.14ZM1424.83 295.957C1425.94 293.804 1427.67 291.964 1430.08 290.445L1429.01 288.755C1426.35 290.436 1424.35 292.529 1423.06 295.043L1424.83 295.957ZM1430.08 290.445C1432.47 288.935 1435.57 287.837 1439.41 287.186L1439.08 285.214C1435.05 285.896 1431.69 287.065 1429.01 288.755L1430.08 290.445ZM1439.41 287.186L1460.41 283.686L1460.08 281.714L1439.08 285.214L1439.41 287.186ZM1459.24 282.7V289.5H1461.24V282.7H1459.24ZM1460.08 288.514L1440.88 291.714L1441.21 293.686L1460.41 290.486L1460.08 288.514ZM1440.87 291.715C1436.91 292.398 1433.87 293.688 1431.92 295.706L1433.36 297.094C1434.89 295.512 1437.45 294.335 1441.21 293.685L1440.87 291.715ZM1431.91 295.721C1430.07 297.707 1429.14 300.083 1429.14 302.8H1431.14C1431.14 300.584 1431.88 298.693 1433.38 297.079L1431.91 295.721ZM1429.14 302.8C1429.14 305.498 1430.21 307.799 1432.28 309.646L1433.61 308.154C1431.95 306.668 1431.14 304.902 1431.14 302.8H1429.14ZM1432.29 309.657C1434.44 311.507 1437.15 312.4 1440.34 312.4V310.4C1437.54 310.4 1435.32 309.626 1433.6 308.143L1432.29 309.657ZM1440.34 312.4C1444.15 312.4 1447.53 311.603 1450.43 309.972L1449.46 308.228C1446.9 309.664 1443.87 310.4 1440.34 310.4V312.4ZM1450.45 309.963C1453.33 308.278 1455.59 306.021 1457.21 303.198L1455.48 302.202C1454.03 304.713 1452.03 306.722 1449.44 308.237L1450.45 309.963ZM1457.21 303.198C1458.84 300.371 1459.64 297.23 1459.64 293.8H1457.64C1457.64 296.903 1456.92 299.696 1455.48 302.202L1457.21 303.198ZM1459.64 293.8V280.2H1457.64V293.8H1459.64ZM1459.64 280.2C1459.64 276.722 1458.36 273.84 1455.8 271.641L1454.49 273.159C1456.6 274.96 1457.64 277.278 1457.64 280.2H1459.64ZM1455.8 271.641C1453.24 269.454 1449.96 268.4 1446.04 268.4V270.4C1449.59 270.4 1452.38 271.346 1454.49 273.159L1455.8 271.641ZM1446.04 268.4C1442.6 268.4 1439.53 269.282 1436.88 271.071L1438 272.729C1440.29 271.184 1442.96 270.4 1446.04 270.4V268.4ZM1436.9 271.061C1434.28 272.761 1432.32 275.005 1431.04 277.781L1432.85 278.619C1433.97 276.195 1435.68 274.239 1437.99 272.739L1436.9 271.061ZM1432.42 277.322L1425.62 273.622L1424.67 275.378L1431.47 279.078L1432.42 277.322ZM1426.06 274.904C1426.99 272.789 1428.46 270.837 1430.5 269.053L1429.19 267.547C1426.96 269.496 1425.3 271.678 1424.23 274.096L1426.06 274.904ZM1430.49 269.063C1432.6 267.272 1435 265.862 1437.7 264.834L1436.99 262.966C1434.09 264.071 1431.49 265.595 1429.2 267.537L1430.49 269.063ZM1437.72 264.827C1440.4 263.742 1443.17 263.2 1446.04 263.2V261.2C1442.92 261.2 1439.89 261.792 1436.97 262.973L1437.72 264.827ZM1446.04 263.2C1449.85 263.2 1453.15 263.94 1455.99 265.39L1456.9 263.61C1453.74 261.993 1450.11 261.2 1446.04 261.2V263.2ZM1456 265.394C1458.91 266.85 1461.13 268.859 1462.69 271.421L1464.4 270.379C1462.63 267.474 1460.11 265.217 1456.89 263.606L1456 265.394ZM1462.71 271.445C1464.32 273.932 1465.14 276.838 1465.14 280.2H1467.14C1467.14 276.495 1466.23 273.202 1464.38 270.355L1462.71 271.445ZM1465.14 280.2V317H1467.14V280.2H1465.14ZM1466.14 316H1458.64V318H1466.14V316ZM1459.64 317V306.3H1457.64V317H1459.64ZM1457.94 307.007L1459.04 308.107L1460.45 306.693L1459.35 305.593L1457.94 307.007ZM1458.84 306.977C1457.98 308.822 1456.61 310.543 1454.7 312.132L1455.98 313.668C1458.08 311.924 1459.64 309.978 1460.65 307.823L1458.84 306.977ZM1454.71 312.13C1452.87 313.65 1450.67 314.897 1448.09 315.864L1448.8 317.736C1451.55 316.703 1453.95 315.35 1455.98 313.67L1454.71 312.13ZM1448.11 315.859C1445.63 316.748 1442.88 317.2 1439.84 317.2V319.2C1443.08 319.2 1446.06 318.718 1448.78 317.741L1448.11 315.859Z" fill="black" mask="url(#path-1-outside-1_8_12)"/>
<mask id="path-3-outside-2_8_12" maskUnits="userSpaceOnUse" x="668" y="164" width="684" height="198" fill="black">
<rect fill="white" x="668" y="164" width="684" height="198"/>
<path d="M726.8 319.4C717.333 319.4 708.733 317.6 701 314C693.267 310.4 686.733 305.6 681.4 299.6C676.067 293.467 672.267 286.733 670 279.4L684.4 274C687.867 284.133 693.267 291.867 700.6 297.2C707.933 302.4 716.667 305 726.8 305C733.2 305 738.8 304 743.6 302C748.533 299.867 752.333 296.933 755 293.2C757.667 289.467 759 285.133 759 280.2C759 272.867 757 267.2 753 263.2C749 259.2 743.267 256.133 735.8 254L709 246C698.467 242.933 690.333 237.8 684.6 230.6C679 223.4 676.2 215.2 676.2 206C676.2 198.133 678.133 191.2 682 185.2C685.867 179.067 691.133 174.267 697.8 170.8C704.6 167.333 712.267 165.6 720.8 165.6C729.733 165.6 737.733 167.267 744.8 170.6C752 173.8 758.067 178.067 763 183.4C767.933 188.733 771.467 194.667 773.6 201.2L759.6 206.8C756.4 198 751.4 191.333 744.6 186.8C737.933 182.267 730.067 180 721 180C715.267 180 710.2 181 705.8 183C701.533 185 698.2 187.867 695.8 191.6C693.4 195.333 692.2 199.733 692.2 204.8C692.2 210.933 694.133 216.467 698 221.4C701.867 226.2 707.8 229.8 715.8 232.2L739.4 239.2C751.133 242.667 760 247.667 766 254.2C772 260.733 775 268.933 775 278.8C775 286.8 772.933 293.867 768.8 300C764.8 306 759.133 310.733 751.8 314.2C744.6 317.667 736.267 319.4 726.8 319.4ZM844.697 318.2C835.097 318.2 827.697 315.4 822.497 309.8C817.297 304.2 814.697 296.2 814.697 285.8V224.8H794.897V209.8H799.897C804.43 209.8 808.03 208.333 810.697 205.4C813.364 202.333 814.697 198.533 814.697 194V185H829.697V209.8H853.297V224.8H829.697V285.8C829.697 289.4 830.23 292.6 831.297 295.4C832.364 298.067 834.164 300.2 836.697 301.8C839.364 303.4 842.897 304.2 847.297 304.2C848.364 304.2 849.63 304.133 851.097 304C852.564 303.867 853.83 303.733 854.897 303.6V317C853.297 317.4 851.497 317.667 849.497 317.8C847.497 318.067 845.897 318.2 844.697 318.2ZM919.236 319.4C911.769 319.4 904.969 317.667 898.836 314.2C892.703 310.6 887.836 305.667 884.236 299.4C880.769 293 879.036 285.667 879.036 277.4V209.8H894.036V275.6C894.036 281.333 895.169 286.4 897.436 290.8C899.836 295.067 903.103 298.4 907.236 300.8C911.503 303.2 916.369 304.4 921.836 304.4C927.303 304.4 932.169 303.2 936.436 300.8C940.703 298.267 944.036 294.733 946.436 290.2C948.836 285.533 950.036 280 950.036 273.6V209.8H965.036V317H950.036V296.2L953.436 297C950.903 303.933 946.569 309.4 940.436 313.4C934.303 317.4 927.236 319.4 919.236 319.4ZM1044.28 319.4C1034.28 319.4 1025.28 317 1017.28 312.2C1009.28 307.267 1002.95 300.6 998.284 292.2C993.751 283.667 991.484 274.067 991.484 263.4C991.484 252.6 993.751 243 998.284 234.6C1002.95 226.2 1009.22 219.6 1017.08 214.8C1025.08 209.867 1034.15 207.4 1044.28 207.4C1053.48 207.4 1061.68 209.4 1068.88 213.4C1076.08 217.4 1081.75 222.8 1085.88 229.6L1083.48 233.8V165.6H1098.48V317H1083.48V293L1085.88 295.2C1082.15 302.933 1076.55 308.933 1069.08 313.2C1061.75 317.333 1053.48 319.4 1044.28 319.4ZM1045.08 304.4C1052.28 304.4 1058.75 302.6 1064.48 299C1070.35 295.4 1074.95 290.533 1078.28 284.4C1081.75 278.133 1083.48 271.133 1083.48 263.4C1083.48 255.667 1081.75 248.733 1078.28 242.6C1074.95 236.333 1070.35 231.4 1064.48 227.8C1058.75 224.2 1052.28 222.4 1045.08 222.4C1038.02 222.4 1031.62 224.2 1025.88 227.8C1020.15 231.4 1015.62 236.267 1012.28 242.4C1009.08 248.533 1007.48 255.533 1007.48 263.4C1007.48 271.133 1009.08 278.133 1012.28 284.4C1015.62 290.533 1020.08 295.4 1025.68 299C1031.42 302.6 1037.88 304.4 1045.08 304.4ZM1131.48 361C1129.35 361 1127.15 360.8 1124.88 360.4C1122.75 360.133 1120.62 359.6 1118.48 358.8V344.8C1119.82 344.933 1121.48 345.133 1123.48 345.4C1125.62 345.8 1127.75 346 1129.88 346C1136.42 346 1141.42 344.6 1144.88 341.8C1148.35 339.133 1151.75 333.933 1155.08 326.2L1161.88 310.2L1161.48 323.4L1116.08 209.8H1132.28L1169.48 303.6H1165.28L1202.28 209.8H1218.88L1169.88 330.6C1167.75 335.8 1165.02 340.733 1161.68 345.4C1158.48 350.067 1154.42 353.8 1149.48 356.6C1144.55 359.533 1138.55 361 1131.48 361ZM1238.71 317V168H1254.71V255L1251.11 253.2L1326.11 168H1346.11L1285.91 236.4L1286.71 225L1349.71 317H1330.51L1279.71 243.6L1254.71 272V317H1238.71Z"/>
</mask>
<path d="M726.8 319.4C717.333 319.4 708.733 317.6 701 314C693.267 310.4 686.733 305.6 681.4 299.6C676.067 293.467 672.267 286.733 670 279.4L684.4 274C687.867 284.133 693.267 291.867 700.6 297.2C707.933 302.4 716.667 305 726.8 305C733.2 305 738.8 304 743.6 302C748.533 299.867 752.333 296.933 755 293.2C757.667 289.467 759 285.133 759 280.2C759 272.867 757 267.2 753 263.2C749 259.2 743.267 256.133 735.8 254L709 246C698.467 242.933 690.333 237.8 684.6 230.6C679 223.4 676.2 215.2 676.2 206C676.2 198.133 678.133 191.2 682 185.2C685.867 179.067 691.133 174.267 697.8 170.8C704.6 167.333 712.267 165.6 720.8 165.6C729.733 165.6 737.733 167.267 744.8 170.6C752 173.8 758.067 178.067 763 183.4C767.933 188.733 771.467 194.667 773.6 201.2L759.6 206.8C756.4 198 751.4 191.333 744.6 186.8C737.933 182.267 730.067 180 721 180C715.267 180 710.2 181 705.8 183C701.533 185 698.2 187.867 695.8 191.6C693.4 195.333 692.2 199.733 692.2 204.8C692.2 210.933 694.133 216.467 698 221.4C701.867 226.2 707.8 229.8 715.8 232.2L739.4 239.2C751.133 242.667 760 247.667 766 254.2C772 260.733 775 268.933 775 278.8C775 286.8 772.933 293.867 768.8 300C764.8 306 759.133 310.733 751.8 314.2C744.6 317.667 736.267 319.4 726.8 319.4ZM844.697 318.2C835.097 318.2 827.697 315.4 822.497 309.8C817.297 304.2 814.697 296.2 814.697 285.8V224.8H794.897V209.8H799.897C804.43 209.8 808.03 208.333 810.697 205.4C813.364 202.333 814.697 198.533 814.697 194V185H829.697V209.8H853.297V224.8H829.697V285.8C829.697 289.4 830.23 292.6 831.297 295.4C832.364 298.067 834.164 300.2 836.697 301.8C839.364 303.4 842.897 304.2 847.297 304.2C848.364 304.2 849.63 304.133 851.097 304C852.564 303.867 853.83 303.733 854.897 303.6V317C853.297 317.4 851.497 317.667 849.497 317.8C847.497 318.067 845.897 318.2 844.697 318.2ZM919.236 319.4C911.769 319.4 904.969 317.667 898.836 314.2C892.703 310.6 887.836 305.667 884.236 299.4C880.769 293 879.036 285.667 879.036 277.4V209.8H894.036V275.6C894.036 281.333 895.169 286.4 897.436 290.8C899.836 295.067 903.103 298.4 907.236 300.8C911.503 303.2 916.369 304.4 921.836 304.4C927.303 304.4 932.169 303.2 936.436 300.8C940.703 298.267 944.036 294.733 946.436 290.2C948.836 285.533 950.036 280 950.036 273.6V209.8H965.036V317H950.036V296.2L953.436 297C950.903 303.933 946.569 309.4 940.436 313.4C934.303 317.4 927.236 319.4 919.236 319.4ZM1044.28 319.4C1034.28 319.4 1025.28 317 1017.28 312.2C1009.28 307.267 1002.95 300.6 998.284 292.2C993.751 283.667 991.484 274.067 991.484 263.4C991.484 252.6 993.751 243 998.284 234.6C1002.95 226.2 1009.22 219.6 1017.08 214.8C1025.08 209.867 1034.15 207.4 1044.28 207.4C1053.48 207.4 1061.68 209.4 1068.88 213.4C1076.08 217.4 1081.75 222.8 1085.88 229.6L1083.48 233.8V165.6H1098.48V317H1083.48V293L1085.88 295.2C1082.15 302.933 1076.55 308.933 1069.08 313.2C1061.75 317.333 1053.48 319.4 1044.28 319.4ZM1045.08 304.4C1052.28 304.4 1058.75 302.6 1064.48 299C1070.35 295.4 1074.95 290.533 1078.28 284.4C1081.75 278.133 1083.48 271.133 1083.48 263.4C1083.48 255.667 1081.75 248.733 1078.28 242.6C1074.95 236.333 1070.35 231.4 1064.48 227.8C1058.75 224.2 1052.28 222.4 1045.08 222.4C1038.02 222.4 1031.62 224.2 1025.88 227.8C1020.15 231.4 1015.62 236.267 1012.28 242.4C1009.08 248.533 1007.48 255.533 1007.48 263.4C1007.48 271.133 1009.08 278.133 1012.28 284.4C1015.62 290.533 1020.08 295.4 1025.68 299C1031.42 302.6 1037.88 304.4 1045.08 304.4ZM1131.48 361C1129.35 361 1127.15 360.8 1124.88 360.4C1122.75 360.133 1120.62 359.6 1118.48 358.8V344.8C1119.82 344.933 1121.48 345.133 1123.48 345.4C1125.62 345.8 1127.75 346 1129.88 346C1136.42 346 1141.42 344.6 1144.88 341.8C1148.35 339.133 1151.75 333.933 1155.08 326.2L1161.88 310.2L1161.48 323.4L1116.08 209.8H1132.28L1169.48 303.6H1165.28L1202.28 209.8H1218.88L1169.88 330.6C1167.75 335.8 1165.02 340.733 1161.68 345.4C1158.48 350.067 1154.42 353.8 1149.48 356.6C1144.55 359.533 1138.55 361 1131.48 361ZM1238.71 317V168H1254.71V255L1251.11 253.2L1326.11 168H1346.11L1285.91 236.4L1286.71 225L1349.71 317H1330.51L1279.71 243.6L1254.71 272V317H1238.71Z" fill="black"/>
<path d="M701 314L700.578 314.907L700.578 314.907L701 314ZM681.4 299.6L680.645 300.256L680.653 300.264L681.4 299.6ZM670 279.4L669.649 278.464L668.766 278.795L669.045 279.695L670 279.4ZM684.4 274L685.346 273.676L685.013 272.702L684.049 273.064L684.4 274ZM700.6 297.2L700.012 298.009L700.022 298.016L700.6 297.2ZM743.6 302L743.985 302.923L743.997 302.918L743.6 302ZM755 293.2L755.814 293.781L755.814 293.781L755 293.2ZM753 263.2L753.707 262.493L753.707 262.493L753 263.2ZM735.8 254L735.514 254.958L735.525 254.962L735.8 254ZM709 246L709.286 245.042L709.28 245.04L709 246ZM684.6 230.6L683.811 231.214L683.818 231.223L684.6 230.6ZM682 185.2L682.841 185.742L682.846 185.733L682 185.2ZM697.8 170.8L697.346 169.909L697.339 169.913L697.8 170.8ZM744.8 170.6L744.373 171.504L744.384 171.509L744.394 171.514L744.8 170.6ZM763 183.4L763.734 182.721L763.734 182.721L763 183.4ZM773.6 201.2L773.971 202.128L774.841 201.78L774.551 200.89L773.6 201.2ZM759.6 206.8L758.66 207.142L759.013 208.112L759.971 207.728L759.6 206.8ZM744.6 186.8L744.038 187.627L744.045 187.632L744.6 186.8ZM705.8 183L705.386 182.09L705.376 182.095L705.8 183ZM695.8 191.6L696.641 192.141L696.641 192.141L695.8 191.6ZM698 221.4L697.213 222.017L697.221 222.027L698 221.4ZM715.8 232.2L715.513 233.158L715.516 233.159L715.8 232.2ZM739.4 239.2L739.116 240.159L739.117 240.159L739.4 239.2ZM766 254.2L765.263 254.876L766 254.2ZM768.8 300L767.971 299.441L767.968 299.445L768.8 300ZM751.8 314.2L751.373 313.296L751.366 313.299L751.8 314.2ZM726.8 318.4C717.463 318.4 709.009 316.625 701.422 313.093L700.578 314.907C708.457 318.575 717.204 320.4 726.8 320.4V318.4ZM701.422 313.093C693.805 309.547 687.384 304.827 682.147 298.936L680.653 300.264C686.082 306.373 692.729 311.253 700.578 314.907L701.422 313.093ZM682.155 298.944C676.907 292.909 673.179 286.297 670.955 279.105L669.045 279.695C671.355 287.169 675.226 294.024 680.645 300.256L682.155 298.944ZM670.351 280.336L684.751 274.936L684.049 273.064L669.649 278.464L670.351 280.336ZM683.454 274.324C686.975 284.616 692.484 292.534 700.012 298.009L701.188 296.391C694.05 291.2 688.759 283.651 685.346 273.676L683.454 274.324ZM700.022 298.016C707.545 303.351 716.487 306 726.8 306V304C716.846 304 708.322 301.449 701.178 296.384L700.022 298.016ZM726.8 306C733.302 306 739.038 304.984 743.985 302.923L743.215 301.077C738.562 303.016 733.098 304 726.8 304V306ZM743.997 302.918C749.068 300.725 753.024 297.686 755.814 293.781L754.186 292.619C751.642 296.18 747.998 299.008 743.203 301.082L743.997 302.918ZM755.814 293.781C758.611 289.865 760 285.325 760 280.2H758C758 284.941 756.723 289.068 754.186 292.619L755.814 293.781ZM760 280.2C760 272.683 757.946 266.731 753.707 262.493L752.293 263.907C756.054 267.669 758 273.05 758 280.2H760ZM753.707 262.493C749.55 258.336 743.647 255.202 736.075 253.038L735.525 254.962C742.887 257.065 748.45 260.064 752.293 263.907L753.707 262.493ZM736.086 253.042L709.286 245.042L708.714 246.958L735.514 254.958L736.086 253.042ZM709.28 245.04C698.906 242.02 690.964 236.986 685.382 229.977L683.818 231.223C689.703 238.614 698.028 243.847 708.72 246.96L709.28 245.04ZM685.389 229.986C679.927 222.963 677.2 214.98 677.2 206H675.2C675.2 215.42 678.073 223.837 683.811 231.214L685.389 229.986ZM677.2 206C677.2 198.305 679.088 191.564 682.841 185.742L681.159 184.658C677.178 190.836 675.2 197.962 675.2 206H677.2ZM682.846 185.733C686.615 179.756 691.746 175.075 698.261 171.687L697.339 169.913C690.521 173.458 685.119 178.378 681.154 184.667L682.846 185.733ZM698.254 171.691C704.898 168.304 712.406 166.6 720.8 166.6V164.6C712.128 164.6 704.302 166.363 697.346 169.909L698.254 171.691ZM720.8 166.6C729.607 166.6 737.458 168.242 744.373 171.504L745.227 169.696C738.009 166.291 729.86 164.6 720.8 164.6V166.6ZM744.394 171.514C751.48 174.663 757.432 178.854 762.266 184.079L763.734 182.721C758.701 177.28 752.52 172.937 745.206 169.686L744.394 171.514ZM762.266 184.079C767.107 189.313 770.563 195.122 772.649 201.51L774.551 200.89C772.37 194.211 768.76 188.154 763.734 182.721L762.266 184.079ZM773.229 200.272L759.229 205.872L759.971 207.728L773.971 202.128L773.229 200.272ZM760.54 206.458C757.278 197.488 752.157 190.636 745.155 185.968L744.045 187.632C750.643 192.03 755.522 198.512 758.66 207.142L760.54 206.458ZM745.162 185.973C738.31 181.313 730.241 179 721 179V181C729.892 181 737.557 183.22 744.038 187.627L745.162 185.973ZM721 179C715.15 179 709.938 180.021 705.386 182.09L706.214 183.91C710.462 181.979 715.383 181 721 181V179ZM705.376 182.095C700.949 184.169 697.467 187.158 694.959 191.059L696.641 192.141C698.933 188.576 702.117 185.831 706.224 183.905L705.376 182.095ZM694.959 191.059C692.441 194.976 691.2 199.569 691.2 204.8H693.2C693.2 199.897 694.359 195.691 696.641 192.141L694.959 191.059ZM691.2 204.8C691.2 211.162 693.212 216.912 697.213 222.017L698.787 220.783C695.055 216.022 693.2 210.704 693.2 204.8H691.2ZM697.221 222.027C701.252 227.032 707.386 230.72 715.513 233.158L716.087 231.242C708.214 228.88 702.481 225.368 698.779 220.773L697.221 222.027ZM715.516 233.159L739.116 240.159L739.684 238.241L716.084 231.241L715.516 233.159ZM739.117 240.159C750.739 243.593 759.424 248.518 765.263 254.876L766.737 253.524C760.576 246.815 751.527 241.74 739.683 238.241L739.117 240.159ZM765.263 254.876C771.075 261.204 774 269.153 774 278.8H776C776 268.713 772.925 260.263 766.737 253.524L765.263 254.876ZM774 278.8C774 286.618 771.984 293.487 767.971 299.441L769.629 300.559C773.883 294.247 776 286.982 776 278.8H774ZM767.968 299.445C764.081 305.276 758.563 309.897 751.373 313.296L752.227 315.104C759.704 311.57 765.519 306.724 769.632 300.555L767.968 299.445ZM751.366 313.299C744.324 316.69 736.144 318.4 726.8 318.4V320.4C736.389 320.4 744.876 318.644 752.234 315.101L751.366 313.299ZM822.497 309.8L823.23 309.12L823.23 309.12L822.497 309.8ZM814.697 224.8H815.697V223.8H814.697V224.8ZM794.897 224.8H793.897V225.8H794.897V224.8ZM794.897 209.8V208.8H793.897V209.8H794.897ZM810.697 205.4L811.437 206.073L811.444 206.065L811.451 206.056L810.697 205.4ZM814.697 185V184H813.697V185H814.697ZM829.697 185H830.697V184H829.697V185ZM829.697 209.8H828.697V210.8H829.697V209.8ZM853.297 209.8H854.297V208.8H853.297V209.8ZM853.297 224.8V225.8H854.297V224.8H853.297ZM829.697 224.8V223.8H828.697V224.8H829.697ZM831.297 295.4L830.362 295.756L830.365 295.764L830.368 295.771L831.297 295.4ZM836.697 301.8L836.163 302.645L836.173 302.652L836.182 302.657L836.697 301.8ZM851.097 304L851.006 303.004L851.006 303.004L851.097 304ZM854.897 303.6H855.897V302.467L854.773 302.608L854.897 303.6ZM854.897 317L855.139 317.97L855.897 317.781V317H854.897ZM849.497 317.8L849.43 316.802L849.397 316.804L849.365 316.809L849.497 317.8ZM844.697 317.2C835.299 317.2 828.194 314.466 823.23 309.12L821.764 310.48C827.199 316.334 834.895 319.2 844.697 319.2V317.2ZM823.23 309.12C818.255 303.763 815.697 296.04 815.697 285.8H813.697C813.697 296.36 816.338 304.637 821.764 310.48L823.23 309.12ZM815.697 285.8V224.8H813.697V285.8H815.697ZM814.697 223.8H794.897V225.8H814.697V223.8ZM795.897 224.8V209.8H793.897V224.8H795.897ZM794.897 210.8H799.897V208.8H794.897V210.8ZM799.897 210.8C804.667 210.8 808.553 209.245 811.437 206.073L809.957 204.727C807.508 207.421 804.193 208.8 799.897 208.8V210.8ZM811.451 206.056C814.295 202.786 815.697 198.745 815.697 194H813.697C813.697 198.322 812.432 201.88 809.942 204.744L811.451 206.056ZM815.697 194V185H813.697V194H815.697ZM814.697 186H829.697V184H814.697V186ZM828.697 185V209.8H830.697V185H828.697ZM829.697 210.8H853.297V208.8H829.697V210.8ZM852.297 209.8V224.8H854.297V209.8H852.297ZM853.297 223.8H829.697V225.8H853.297V223.8ZM828.697 224.8V285.8H830.697V224.8H828.697ZM828.697 285.8C828.697 289.498 829.245 292.822 830.362 295.756L832.231 295.044C831.216 292.378 830.697 289.302 830.697 285.8H828.697ZM830.368 295.771C831.517 298.643 833.46 300.938 836.163 302.645L837.231 300.955C834.867 299.462 833.21 297.491 832.225 295.029L830.368 295.771ZM836.182 302.657C839.056 304.382 842.787 305.2 847.297 305.2V303.2C843.007 303.2 839.671 302.418 837.211 300.943L836.182 302.657ZM847.297 305.2C848.403 305.2 849.701 305.131 851.187 304.996L851.006 303.004C849.559 303.136 848.324 303.2 847.297 303.2V305.2ZM851.187 304.996C852.661 304.862 853.94 304.727 855.021 304.592L854.773 302.608C853.721 302.739 852.466 302.871 851.006 303.004L851.187 304.996ZM853.897 303.6V317H855.897V303.6H853.897ZM854.654 316.03C853.123 316.413 851.383 316.672 849.43 316.802L849.563 318.798C851.611 318.661 853.471 318.387 855.139 317.97L854.654 316.03ZM849.365 316.809C847.383 317.073 845.833 317.2 844.697 317.2V319.2C845.961 319.2 847.61 319.06 849.629 318.791L849.365 316.809ZM898.836 314.2L898.33 315.062L898.337 315.067L898.344 315.071L898.836 314.2ZM884.236 299.4L883.357 299.876L883.363 299.887L883.369 299.898L884.236 299.4ZM879.036 209.8V208.8H878.036V209.8H879.036ZM894.036 209.8H895.036V208.8H894.036V209.8ZM897.436 290.8L896.547 291.258L896.555 291.274L896.564 291.29L897.436 290.8ZM907.236 300.8L906.734 301.665L906.746 301.672L907.236 300.8ZM936.436 300.8L936.926 301.672L936.936 301.666L936.946 301.66L936.436 300.8ZM946.436 290.2L947.32 290.668L947.325 290.657L946.436 290.2ZM950.036 209.8V208.8H949.036V209.8H950.036ZM965.036 209.8H966.036V208.8H965.036V209.8ZM965.036 317V318H966.036V317H965.036ZM950.036 317H949.036V318H950.036V317ZM950.036 296.2L950.265 295.227L949.036 294.937V296.2H950.036ZM953.436 297L954.375 297.343L954.762 296.285L953.665 296.027L953.436 297ZM940.436 313.4L939.89 312.562L939.89 312.562L940.436 313.4ZM919.236 318.4C911.931 318.4 905.302 316.706 899.328 313.329L898.344 315.071C904.636 318.627 911.608 320.4 919.236 320.4V318.4ZM899.342 313.338C893.361 309.827 888.618 305.02 885.103 298.902L883.369 299.898C887.054 306.313 892.044 311.373 898.33 315.062L899.342 313.338ZM885.115 298.924C881.738 292.689 880.036 285.523 880.036 277.4H878.036C878.036 285.81 879.801 293.311 883.357 299.876L885.115 298.924ZM880.036 277.4V209.8H878.036V277.4H880.036ZM879.036 210.8H894.036V208.8H879.036V210.8ZM893.036 209.8V275.6H895.036V209.8H893.036ZM893.036 275.6C893.036 281.467 894.197 286.695 896.547 291.258L898.325 290.342C896.142 286.105 895.036 281.199 895.036 275.6H893.036ZM896.564 291.29C899.05 295.709 902.442 299.173 906.734 301.665L907.738 299.935C903.763 297.627 900.622 294.425 898.308 290.31L896.564 291.29ZM906.746 301.672C911.179 304.165 916.218 305.4 921.836 305.4V303.4C916.521 303.4 911.826 302.235 907.726 299.928L906.746 301.672ZM921.836 305.4C927.454 305.4 932.493 304.165 936.926 301.672L935.946 299.928C931.846 302.235 927.151 303.4 921.836 303.4V305.4ZM936.946 301.66C941.377 299.029 944.837 295.358 947.32 290.668L945.552 289.732C943.235 294.109 940.028 297.504 935.925 299.94L936.946 301.66ZM947.325 290.657C949.812 285.821 951.036 280.125 951.036 273.6H949.036C949.036 279.875 947.86 285.245 945.547 289.743L947.325 290.657ZM951.036 273.6V209.8H949.036V273.6H951.036ZM950.036 210.8H965.036V208.8H950.036V210.8ZM964.036 209.8V317H966.036V209.8H964.036ZM965.036 316H950.036V318H965.036V316ZM951.036 317V296.2H949.036V317H951.036ZM949.807 297.173L953.207 297.973L953.665 296.027L950.265 295.227L949.807 297.173ZM952.497 296.657C950.037 303.389 945.84 308.681 939.89 312.562L940.982 314.238C947.298 310.119 951.768 304.478 954.375 297.343L952.497 296.657ZM939.89 312.562C933.934 316.447 927.061 318.4 919.236 318.4V320.4C927.411 320.4 934.671 318.353 940.982 314.238L939.89 312.562ZM1017.28 312.2L1016.76 313.051L1016.77 313.057L1017.28 312.2ZM998.284 292.2L997.401 292.669L997.406 292.677L997.41 292.686L998.284 292.2ZM998.284 234.6L997.41 234.114L997.404 234.125L998.284 234.6ZM1017.08 214.8L1017.61 215.654L1017.61 215.651L1017.08 214.8ZM1068.88 213.4L1068.4 214.274L1068.4 214.274L1068.88 213.4ZM1085.88 229.6L1086.75 230.096L1087.05 229.584L1086.74 229.081L1085.88 229.6ZM1083.48 233.8H1082.48V237.566L1084.35 234.296L1083.48 233.8ZM1083.48 165.6V164.6H1082.48V165.6H1083.48ZM1098.48 165.6H1099.48V164.6H1098.48V165.6ZM1098.48 317V318H1099.48V317H1098.48ZM1083.48 317H1082.48V318H1083.48V317ZM1083.48 293L1084.16 292.263L1082.48 290.727V293H1083.48ZM1085.88 295.2L1086.78 295.635L1087.11 294.965L1086.56 294.463L1085.88 295.2ZM1069.08 313.2L1069.58 314.071L1069.58 314.068L1069.08 313.2ZM1064.48 299L1063.96 298.148L1063.95 298.153L1064.48 299ZM1078.28 284.4L1077.41 283.916L1077.41 283.922L1078.28 284.4ZM1078.28 242.6L1077.4 243.07L1077.41 243.081L1077.41 243.092L1078.28 242.6ZM1064.48 227.8L1063.95 228.647L1063.96 228.652L1064.48 227.8ZM1025.88 227.8L1026.42 228.647L1026.42 228.647L1025.88 227.8ZM1012.28 242.4L1011.41 241.922L1011.4 241.93L1011.4 241.937L1012.28 242.4ZM1012.28 284.4L1011.39 284.855L1011.4 284.866L1011.41 284.878L1012.28 284.4ZM1025.68 299L1025.14 299.841L1025.15 299.847L1025.68 299ZM1044.28 318.4C1034.45 318.4 1025.63 316.043 1017.8 311.343L1016.77 313.057C1024.94 317.957 1034.12 320.4 1044.28 320.4V318.4ZM1017.81 311.349C1009.96 306.507 1003.74 299.968 999.159 291.714L997.41 292.686C1002.16 301.232 1008.61 308.026 1016.76 313.051L1017.81 311.349ZM999.167 291.731C994.719 283.357 992.484 273.92 992.484 263.4H990.484C990.484 274.213 992.783 283.977 997.401 292.669L999.167 291.731ZM992.484 263.4C992.484 252.744 994.72 243.311 999.164 235.075L997.404 234.125C992.782 242.689 990.484 252.456 990.484 263.4H992.484ZM999.159 235.086C1003.74 226.83 1009.89 220.36 1017.61 215.654L1016.56 213.946C1008.54 218.84 1002.16 225.57 997.41 234.114L999.159 235.086ZM1017.61 215.651C1025.44 210.823 1034.32 208.4 1044.28 208.4V206.4C1033.98 206.4 1024.73 208.911 1016.56 213.949L1017.61 215.651ZM1044.28 208.4C1053.33 208.4 1061.36 210.366 1068.4 214.274L1069.37 212.526C1062 208.434 1053.63 206.4 1044.28 206.4V208.4ZM1068.4 214.274C1075.45 218.193 1080.99 223.473 1085.03 230.119L1086.74 229.081C1082.51 222.127 1076.72 216.607 1069.37 212.526L1068.4 214.274ZM1085.02 229.104L1082.62 233.304L1084.35 234.296L1086.75 230.096L1085.02 229.104ZM1084.48 233.8V165.6H1082.48V233.8H1084.48ZM1083.48 166.6H1098.48V164.6H1083.48V166.6ZM1097.48 165.6V317H1099.48V165.6H1097.48ZM1098.48 316H1083.48V318H1098.48V316ZM1084.48 317V293H1082.48V317H1084.48ZM1082.81 293.737L1085.21 295.937L1086.56 294.463L1084.16 292.263L1082.81 293.737ZM1084.98 294.765C1081.34 302.316 1075.88 308.165 1068.59 312.332L1069.58 314.068C1077.22 309.701 1082.96 303.55 1086.78 295.635L1084.98 294.765ZM1068.59 312.329C1061.42 316.37 1053.33 318.4 1044.28 318.4V320.4C1053.64 320.4 1062.08 318.297 1069.58 314.071L1068.59 312.329ZM1045.08 305.4C1052.46 305.4 1059.11 303.553 1065.02 299.847L1063.95 298.153C1058.39 301.647 1052.11 303.4 1045.08 303.4V305.4ZM1065.01 299.852C1071.03 296.159 1075.75 291.162 1079.16 284.878L1077.41 283.922C1074.15 289.904 1069.68 294.641 1063.96 298.148L1065.01 299.852ZM1079.16 284.884C1082.71 278.458 1084.48 271.289 1084.48 263.4H1082.48C1082.48 270.978 1080.79 277.809 1077.41 283.916L1079.16 284.884ZM1084.48 263.4C1084.48 255.512 1082.71 248.406 1079.15 242.108L1077.41 243.092C1080.79 249.061 1082.48 255.822 1082.48 263.4H1084.48ZM1079.17 242.13C1075.75 235.711 1071.03 230.644 1065.01 226.948L1063.96 228.652C1069.67 232.156 1074.15 236.955 1077.4 243.07L1079.17 242.13ZM1065.02 226.953C1059.11 223.247 1052.46 221.4 1045.08 221.4V223.4C1052.11 223.4 1058.39 225.153 1063.95 228.647L1065.02 226.953ZM1045.08 221.4C1037.84 221.4 1031.25 223.249 1025.35 226.953L1026.42 228.647C1031.98 225.151 1038.2 223.4 1045.08 223.4V221.4ZM1025.35 226.953C1019.47 230.647 1014.82 235.643 1011.41 241.922L1013.16 242.878C1016.42 236.89 1020.83 232.153 1026.42 228.647L1025.35 226.953ZM1011.4 241.937C1008.11 248.232 1006.48 255.395 1006.48 263.4H1008.48C1008.48 255.672 1010.06 248.835 1013.17 242.863L1011.4 241.937ZM1006.48 263.4C1006.48 271.276 1008.11 278.434 1011.39 284.855L1013.17 283.945C1010.05 277.833 1008.48 270.991 1008.48 263.4H1006.48ZM1011.41 284.878C1014.82 291.151 1019.4 296.146 1025.14 299.841L1026.23 298.159C1020.77 294.654 1016.42 289.916 1013.16 283.922L1011.41 284.878ZM1025.15 299.847C1031.06 303.553 1037.71 305.4 1045.08 305.4V303.4C1038.06 303.4 1031.78 301.647 1026.22 298.153L1025.15 299.847ZM1124.88 360.4L1125.06 359.415L1125.03 359.411L1125.01 359.408L1124.88 360.4ZM1118.48 358.8H1117.48V359.493L1118.13 359.736L1118.48 358.8ZM1118.48 344.8L1118.58 343.805L1117.48 343.695V344.8H1118.48ZM1123.48 345.4L1123.67 344.417L1123.64 344.412L1123.61 344.409L1123.48 345.4ZM1144.88 341.8L1144.27 341.007L1144.26 341.015L1144.25 341.022L1144.88 341.8ZM1155.08 326.2L1156 326.596L1156 326.591L1155.08 326.2ZM1161.88 310.2L1162.88 310.23L1160.96 309.809L1161.88 310.2ZM1161.48 323.4L1160.55 323.771L1162.48 323.43L1161.48 323.4ZM1116.08 209.8V208.8H1114.61L1115.15 210.171L1116.08 209.8ZM1132.28 209.8L1133.21 209.431L1132.96 208.8H1132.28V209.8ZM1169.48 303.6V304.6H1170.96L1170.41 303.231L1169.48 303.6ZM1165.28 303.6L1164.35 303.233L1163.81 304.6H1165.28V303.6ZM1202.28 209.8V208.8H1201.6L1201.35 209.433L1202.28 209.8ZM1218.88 209.8L1219.81 210.176L1220.37 208.8H1218.88V209.8ZM1169.88 330.6L1170.81 330.98L1170.81 330.976L1169.88 330.6ZM1161.68 345.4L1160.87 344.819L1160.86 344.827L1160.86 344.834L1161.68 345.4ZM1149.48 356.6L1148.99 355.73L1148.98 355.735L1148.97 355.74L1149.48 356.6ZM1131.48 360C1129.41 360 1127.27 359.806 1125.06 359.415L1124.71 361.385C1127.03 361.794 1129.29 362 1131.48 362V360ZM1125.01 359.408C1122.96 359.151 1120.9 358.638 1118.83 357.864L1118.13 359.736C1120.33 360.562 1122.54 361.115 1124.76 361.392L1125.01 359.408ZM1119.48 358.8V344.8H1117.48V358.8H1119.48ZM1118.38 345.795C1119.7 345.927 1121.36 346.125 1123.35 346.391L1123.61 344.409C1121.61 344.141 1119.93 343.94 1118.58 343.805L1118.38 345.795ZM1123.3 346.383C1125.49 346.794 1127.69 347 1129.88 347V345C1127.81 345 1125.74 344.806 1123.67 344.417L1123.3 346.383ZM1129.88 347C1136.54 347 1141.8 345.575 1145.51 342.578L1144.25 341.022C1141.03 343.625 1136.29 345 1129.88 345V347ZM1145.49 342.593C1149.17 339.764 1152.65 334.366 1156 326.596L1154.16 325.804C1150.85 333.501 1147.53 338.502 1144.27 341.007L1145.49 342.593ZM1156 326.591L1162.8 310.591L1160.96 309.809L1154.16 325.809L1156 326.591ZM1160.88 310.17L1160.48 323.37L1162.48 323.43L1162.88 310.23L1160.88 310.17ZM1162.41 323.029L1117.01 209.429L1115.15 210.171L1160.55 323.771L1162.41 323.029ZM1116.08 210.8H1132.28V208.8H1116.08V210.8ZM1131.35 210.169L1168.55 303.969L1170.41 303.231L1133.21 209.431L1131.35 210.169ZM1169.48 302.6H1165.28V304.6H1169.48V302.6ZM1166.21 303.967L1203.21 210.167L1201.35 209.433L1164.35 303.233L1166.21 303.967ZM1202.28 210.8H1218.88V208.8H1202.28V210.8ZM1217.96 209.424L1168.96 330.224L1170.81 330.976L1219.81 210.176L1217.96 209.424ZM1168.96 330.22C1166.85 335.348 1164.16 340.214 1160.87 344.819L1162.5 345.981C1165.87 341.253 1168.64 336.252 1170.81 330.98L1168.96 330.22ZM1160.86 344.834C1157.74 349.376 1153.79 353.005 1148.99 355.73L1149.98 357.47C1155.04 354.595 1159.22 350.758 1162.51 345.966L1160.86 344.834ZM1148.97 355.74C1144.23 358.563 1138.41 360 1131.48 360V362C1138.69 362 1144.87 360.504 1149.99 357.46L1148.97 355.74ZM1238.71 317H1237.71V318H1238.71V317ZM1238.71 168V167H1237.71V168H1238.71ZM1254.71 168H1255.71V167H1254.71V168ZM1254.71 255L1254.26 255.894L1255.71 256.618V255H1254.71ZM1251.11 253.2L1250.36 252.539L1249.5 253.514L1250.66 254.094L1251.11 253.2ZM1326.11 168V167H1325.66L1325.36 167.339L1326.11 168ZM1346.11 168L1346.86 168.661L1348.32 167H1346.11V168ZM1285.91 236.4L1284.91 236.33L1284.7 239.282L1286.66 237.061L1285.91 236.4ZM1286.71 225L1287.53 224.435L1285.91 222.067L1285.71 224.93L1286.71 225ZM1349.71 317V318H1351.61L1350.53 316.435L1349.71 317ZM1330.51 317L1329.69 317.569L1329.99 318H1330.51V317ZM1279.71 243.6L1280.53 243.031L1279.8 241.979L1278.96 242.939L1279.71 243.6ZM1254.71 272L1253.96 271.339L1253.71 271.623V272H1254.71ZM1254.71 317V318H1255.71V317H1254.71ZM1239.71 317V168H1237.71V317H1239.71ZM1238.71 169H1254.71V167H1238.71V169ZM1253.71 168V255H1255.71V168H1253.71ZM1255.16 254.106L1251.56 252.306L1250.66 254.094L1254.26 255.894L1255.16 254.106ZM1251.86 253.861L1326.86 168.661L1325.36 167.339L1250.36 252.539L1251.86 253.861ZM1326.11 169H1346.11V167H1326.11V169ZM1345.36 167.339L1285.16 235.739L1286.66 237.061L1346.86 168.661L1345.36 167.339ZM1286.91 236.47L1287.71 225.07L1285.71 224.93L1284.91 236.33L1286.91 236.47ZM1285.88 225.565L1348.88 317.565L1350.53 316.435L1287.53 224.435L1285.88 225.565ZM1349.71 316H1330.51V318H1349.71V316ZM1331.33 316.431L1280.53 243.031L1278.89 244.169L1329.69 317.569L1331.33 316.431ZM1278.96 242.939L1253.96 271.339L1255.46 272.661L1280.46 244.261L1278.96 242.939ZM1253.71 272V317H1255.71V272H1253.71ZM1254.71 316H1238.71V318H1254.71V316Z" fill="black" mask="url(#path-3-outside-2_8_12)"/>
<path d="M324 90.25C338.322 90.25 352.057 96.5978 362.184 107.897C372.311 119.196 378 134.521 378 150.5V193.539C378 200.246 378 203.6 376.614 206.05C375.896 207.325 374.93 208.402 373.788 209.204C371.592 210.75 368.586 210.75 362.574 210.75H270M324 90.25C309.678 90.25 295.943 96.5978 285.816 107.897C275.689 119.196 270 134.521 270 150.5V210.75M324 90.25H126C92.052 90.25 75.096 90.25 64.548 102.019C54 113.788 54 132.706 54 170.583V451.75L108 431.667L162 451.75L216 431.667L270 451.75V210.75" stroke="black"/>
<path d="M126 170.583H198M144 250.917H126M126 331.25H180" stroke="black" stroke-linecap="round"/>
<path d="M377.84 316.363C373.575 312.278 367.981 309.869 362.083 309.577C356.185 309.285 350.38 311.13 345.733 314.773L326.736 257.269C325.15 252.408 322.192 248.108 318.217 244.891C314.242 241.673 309.421 239.675 304.336 239.136L212.805 229.216C210.433 228.967 208.035 229.252 205.787 230.049C203.539 230.847 201.497 232.137 199.812 233.825C198.127 235.514 196.841 237.557 196.047 239.807C195.254 242.056 194.973 244.455 195.227 246.827L205.147 338.336C205.679 343.424 207.675 348.248 210.893 352.223C214.112 356.199 218.415 359.156 223.28 360.736L280.773 379.616C277.254 383.92 275.332 389.309 275.333 394.869C275.353 401.228 277.888 407.322 282.384 411.818C286.881 416.315 292.974 418.85 299.333 418.869C305.698 418.849 311.798 416.315 316.304 411.819L377.851 350.283C380.079 348.055 381.847 345.41 383.053 342.499C384.259 339.588 384.879 336.468 384.879 333.317C384.879 330.166 384.259 327.046 383.053 324.135C381.847 321.225 380.079 318.58 377.851 316.352L377.84 316.363ZM226.587 350.603C223.676 349.64 221.103 347.862 219.175 345.479C217.246 343.096 216.042 340.21 215.707 337.163L206.107 247.669L248.88 290.443C248.116 292.677 247.992 295.081 248.522 297.382C249.052 299.683 250.214 301.791 251.877 303.467C253.024 304.663 254.399 305.618 255.92 306.276C257.441 306.934 259.078 307.282 260.735 307.299C262.393 307.316 264.037 307.002 265.571 306.375C267.105 305.748 268.499 304.821 269.67 303.649C270.841 302.476 271.767 301.081 272.392 299.546C273.017 298.011 273.329 296.367 273.31 294.709C273.291 293.052 272.941 291.415 272.281 289.895C271.621 288.375 270.664 287.002 269.467 285.856C267.82 284.189 265.728 283.032 263.441 282.523C261.154 282.014 258.769 282.175 256.571 282.987L213.691 240.107L303.184 249.707C306.24 250.013 309.139 251.206 311.525 253.139C313.911 255.072 315.68 257.661 316.613 260.587L337.211 323.093L289.104 371.2L226.587 350.603ZM351.483 323.829C353.354 321.974 355.733 320.715 358.32 320.211C360.906 319.707 363.584 319.981 366.015 320.998C368.446 322.015 370.521 323.729 371.978 325.925C373.435 328.12 374.209 330.698 374.203 333.333C374.201 335.081 373.852 336.81 373.176 338.421C372.5 340.033 371.511 341.494 370.267 342.72L308.709 404.267C306.172 406.703 302.792 408.063 299.275 408.063C295.758 408.063 292.377 406.703 289.84 404.267C287.372 401.766 285.989 398.393 285.989 394.88C285.989 391.367 287.372 387.994 289.84 385.493L351.483 323.829Z" fill="black"/>
<line x1="626.595" y1="2.16761" x2="404.595" y2="575.168" stroke="black" stroke-width="12"/>
</svg>
