<svg width="948" height="282" viewBox="0 0 948 282" fill="none" xmlns="http://www.w3.org/2000/svg">
<mask id="path-1-outside-1_8_30" maskUnits="userSpaceOnUse" x="703" y="132" width="106" height="79" fill="black">
<rect fill="white" x="703" y="132" width="106" height="79"/>
<path d="M704.7 208V154.4H712.2V208H704.7ZM704.7 144.5V133.5H712.2V144.5H704.7ZM748.052 208.6C743.252 208.6 739.552 207.2 736.952 204.4C734.352 201.6 733.052 197.6 733.052 192.4V161.9H723.152V154.4H725.652C727.918 154.4 729.718 153.667 731.052 152.2C732.385 150.667 733.052 148.767 733.052 146.5V142H740.552V154.4H752.352V161.9H740.552V192.4C740.552 194.2 740.818 195.8 741.352 197.2C741.885 198.533 742.785 199.6 744.052 200.4C745.385 201.2 747.152 201.6 749.352 201.6C749.885 201.6 750.518 201.567 751.252 201.5C751.985 201.433 752.618 201.367 753.152 201.3V208C752.352 208.2 751.452 208.333 750.452 208.4C749.452 208.533 748.652 208.6 748.052 208.6ZM780.845 209.2C777.445 209.2 774.411 208.567 771.745 207.3C769.078 205.967 766.978 204.167 765.445 201.9C763.911 199.633 763.145 197.033 763.145 194.1C763.145 191.3 763.745 188.767 764.945 186.5C766.145 184.167 768.011 182.2 770.545 180.6C773.078 179 776.311 177.867 780.245 177.2L801.245 173.7V180.5L782.045 183.7C778.178 184.367 775.378 185.6 773.645 187.4C771.978 189.2 771.145 191.333 771.145 193.8C771.145 196.2 772.078 198.233 773.945 199.9C775.878 201.567 778.345 202.4 781.345 202.4C785.011 202.4 788.211 201.633 790.945 200.1C793.678 198.5 795.811 196.367 797.345 193.7C798.878 191.033 799.645 188.067 799.645 184.8V171.2C799.645 168 798.478 165.4 796.145 163.4C793.811 161.4 790.778 160.4 787.045 160.4C783.778 160.4 780.911 161.233 778.445 162.9C775.978 164.5 774.145 166.6 772.945 169.2L766.145 165.5C767.145 163.233 768.711 161.167 770.845 159.3C773.045 157.433 775.545 155.967 778.345 154.9C781.145 153.767 784.045 153.2 787.045 153.2C790.978 153.2 794.445 153.967 797.445 155.5C800.511 157.033 802.878 159.167 804.545 161.9C806.278 164.567 807.145 167.667 807.145 171.2V208H799.645V197.3L800.745 198.4C799.811 200.4 798.345 202.233 796.345 203.9C794.411 205.5 792.111 206.8 789.445 207.8C786.845 208.733 783.978 209.2 780.845 209.2Z"/>
</mask>
<path d="M704.7 208V154.4H712.2V208H704.7ZM704.7 144.5V133.5H712.2V144.5H704.7ZM748.052 208.6C743.252 208.6 739.552 207.2 736.952 204.4C734.352 201.6 733.052 197.6 733.052 192.4V161.9H723.152V154.4H725.652C727.918 154.4 729.718 153.667 731.052 152.2C732.385 150.667 733.052 148.767 733.052 146.5V142H740.552V154.4H752.352V161.9H740.552V192.4C740.552 194.2 740.818 195.8 741.352 197.2C741.885 198.533 742.785 199.6 744.052 200.4C745.385 201.2 747.152 201.6 749.352 201.6C749.885 201.6 750.518 201.567 751.252 201.5C751.985 201.433 752.618 201.367 753.152 201.3V208C752.352 208.2 751.452 208.333 750.452 208.4C749.452 208.533 748.652 208.6 748.052 208.6ZM780.845 209.2C777.445 209.2 774.411 208.567 771.745 207.3C769.078 205.967 766.978 204.167 765.445 201.9C763.911 199.633 763.145 197.033 763.145 194.1C763.145 191.3 763.745 188.767 764.945 186.5C766.145 184.167 768.011 182.2 770.545 180.6C773.078 179 776.311 177.867 780.245 177.2L801.245 173.7V180.5L782.045 183.7C778.178 184.367 775.378 185.6 773.645 187.4C771.978 189.2 771.145 191.333 771.145 193.8C771.145 196.2 772.078 198.233 773.945 199.9C775.878 201.567 778.345 202.4 781.345 202.4C785.011 202.4 788.211 201.633 790.945 200.1C793.678 198.5 795.811 196.367 797.345 193.7C798.878 191.033 799.645 188.067 799.645 184.8V171.2C799.645 168 798.478 165.4 796.145 163.4C793.811 161.4 790.778 160.4 787.045 160.4C783.778 160.4 780.911 161.233 778.445 162.9C775.978 164.5 774.145 166.6 772.945 169.2L766.145 165.5C767.145 163.233 768.711 161.167 770.845 159.3C773.045 157.433 775.545 155.967 778.345 154.9C781.145 153.767 784.045 153.2 787.045 153.2C790.978 153.2 794.445 153.967 797.445 155.5C800.511 157.033 802.878 159.167 804.545 161.9C806.278 164.567 807.145 167.667 807.145 171.2V208H799.645V197.3L800.745 198.4C799.811 200.4 798.345 202.233 796.345 203.9C794.411 205.5 792.111 206.8 789.445 207.8C786.845 208.733 783.978 209.2 780.845 209.2Z" fill="black"/>
<path d="M704.7 208H703.7V209H704.7V208ZM704.7 154.4V153.4H703.7V154.4H704.7ZM712.2 154.4H713.2V153.4H712.2V154.4ZM712.2 208V209H713.2V208H712.2ZM704.7 144.5H703.7V145.5H704.7V144.5ZM704.7 133.5V132.5H703.7V133.5H704.7ZM712.2 133.5H713.2V132.5H712.2V133.5ZM712.2 144.5V145.5H713.2V144.5H712.2ZM705.7 208V154.4H703.7V208H705.7ZM704.7 155.4H712.2V153.4H704.7V155.4ZM711.2 154.4V208H713.2V154.4H711.2ZM712.2 207H704.7V209H712.2V207ZM705.7 144.5V133.5H703.7V144.5H705.7ZM704.7 134.5H712.2V132.5H704.7V134.5ZM711.2 133.5V144.5H713.2V133.5H711.2ZM712.2 143.5H704.7V145.5H712.2V143.5ZM736.952 204.4L737.684 203.72L737.684 203.72L736.952 204.4ZM733.052 161.9H734.052V160.9H733.052V161.9ZM723.152 161.9H722.152V162.9H723.152V161.9ZM723.152 154.4V153.4H722.152V154.4H723.152ZM731.052 152.2L731.792 152.873L731.799 152.865L731.806 152.856L731.052 152.2ZM733.052 142V141H732.052V142H733.052ZM740.552 142H741.552V141H740.552V142ZM740.552 154.4H739.552V155.4H740.552V154.4ZM752.352 154.4H753.352V153.4H752.352V154.4ZM752.352 161.9V162.9H753.352V161.9H752.352ZM740.552 161.9V160.9H739.552V161.9H740.552ZM741.352 197.2L740.417 197.556L740.42 197.564L740.423 197.571L741.352 197.2ZM744.052 200.4L743.518 201.245L743.527 201.252L743.537 201.257L744.052 200.4ZM751.252 201.5L751.161 200.504L751.161 200.504L751.252 201.5ZM753.152 201.3H754.152V200.167L753.028 200.308L753.152 201.3ZM753.152 208L753.394 208.97L754.152 208.781V208H753.152ZM750.452 208.4L750.385 207.402L750.352 207.404L750.319 207.409L750.452 208.4ZM748.052 207.6C743.454 207.6 740.049 206.266 737.684 203.72L736.219 205.08C739.054 208.134 743.05 209.6 748.052 209.6V207.6ZM737.684 203.72C735.31 201.163 734.052 197.44 734.052 192.4H732.052C732.052 197.76 733.393 202.037 736.219 205.08L737.684 203.72ZM734.052 192.4V161.9H732.052V192.4H734.052ZM733.052 160.9H723.152V162.9H733.052V160.9ZM724.152 161.9V154.4H722.152V161.9H724.152ZM723.152 155.4H725.652V153.4H723.152V155.4ZM725.652 155.4C728.155 155.4 730.241 154.579 731.792 152.873L730.312 151.527C729.196 152.755 727.681 153.4 725.652 153.4V155.4ZM731.806 152.856C733.316 151.12 734.052 148.978 734.052 146.5H732.052C732.052 148.555 731.453 150.214 730.297 151.544L731.806 152.856ZM734.052 146.5V142H732.052V146.5H734.052ZM733.052 143H740.552V141H733.052V143ZM739.552 142V154.4H741.552V142H739.552ZM740.552 155.4H752.352V153.4H740.552V155.4ZM751.352 154.4V161.9H753.352V154.4H751.352ZM752.352 160.9H740.552V162.9H752.352V160.9ZM739.552 161.9V192.4H741.552V161.9H739.552ZM739.552 192.4C739.552 194.298 739.833 196.022 740.417 197.556L742.286 196.844C741.804 195.578 741.552 194.102 741.552 192.4H739.552ZM740.423 197.571C741.038 199.109 742.081 200.338 743.518 201.245L744.586 199.555C743.489 198.862 742.732 197.957 742.28 196.829L740.423 197.571ZM743.537 201.257C745.077 202.182 747.042 202.6 749.352 202.6V200.6C747.261 200.6 745.692 200.218 744.566 199.543L743.537 201.257ZM749.352 202.6C749.924 202.6 750.589 202.564 751.342 202.496L751.161 200.504C750.447 200.569 749.846 200.6 749.352 200.6V202.6ZM751.342 202.496C752.083 202.429 752.728 202.361 753.276 202.292L753.028 200.308C752.509 200.373 751.887 200.438 751.161 200.504L751.342 202.496ZM752.152 201.3V208H754.152V201.3H752.152ZM752.909 207.03C752.178 207.213 751.338 207.339 750.385 207.402L750.518 209.398C751.565 209.328 752.526 209.187 753.394 208.97L752.909 207.03ZM750.319 207.409C749.338 207.54 748.588 207.6 748.052 207.6V209.6C748.715 209.6 749.565 209.527 750.584 209.391L750.319 207.409ZM771.745 207.3L771.297 208.194L771.306 208.199L771.315 208.203L771.745 207.3ZM765.445 201.9L764.616 202.46L764.616 202.46L765.445 201.9ZM764.945 186.5L765.828 186.968L765.834 186.957L764.945 186.5ZM770.545 180.6L770.011 179.755L770.011 179.755L770.545 180.6ZM780.245 177.2L780.08 176.214L780.077 176.214L780.245 177.2ZM801.245 173.7H802.245V172.52L801.08 172.714L801.245 173.7ZM801.245 180.5L801.409 181.486L802.245 181.347V180.5H801.245ZM782.045 183.7L781.88 182.714L781.875 182.715L782.045 183.7ZM773.645 187.4L772.924 186.706L772.917 186.713L772.911 186.721L773.645 187.4ZM773.945 199.9L773.279 200.646L773.285 200.652L773.292 200.657L773.945 199.9ZM790.945 200.1L791.434 200.972L791.442 200.968L791.45 200.963L790.945 200.1ZM797.345 193.7L798.211 194.198L798.211 194.198L797.345 193.7ZM778.445 162.9L778.989 163.739L778.997 163.734L779.004 163.729L778.445 162.9ZM772.945 169.2L772.467 170.078L773.405 170.589L773.852 169.619L772.945 169.2ZM766.145 165.5L765.23 165.096L764.858 165.938L765.667 166.378L766.145 165.5ZM770.845 159.3L770.198 158.537L770.192 158.542L770.186 158.547L770.845 159.3ZM778.345 154.9L778.701 155.834L778.71 155.831L778.72 155.827L778.345 154.9ZM797.445 155.5L796.989 156.39L796.997 156.394L797.445 155.5ZM804.545 161.9L803.691 162.421L803.698 162.433L803.706 162.445L804.545 161.9ZM807.145 208V209H808.145V208H807.145ZM799.645 208H798.645V209H799.645V208ZM799.645 197.3L800.352 196.593L798.645 194.886V197.3H799.645ZM800.745 198.4L801.651 198.823L801.947 198.188L801.452 197.693L800.745 198.4ZM796.345 203.9L796.982 204.67L796.985 204.668L796.345 203.9ZM789.445 207.8L789.782 208.741L789.796 208.736L789.445 207.8ZM780.845 208.2C777.57 208.2 774.687 207.591 772.174 206.397L771.315 208.203C774.135 209.543 777.319 210.2 780.845 210.2V208.2ZM772.192 206.406C769.665 205.142 767.701 203.452 766.273 201.34L764.616 202.46C766.254 204.882 768.491 206.791 771.297 208.194L772.192 206.406ZM766.273 201.34C764.86 199.251 764.145 196.849 764.145 194.1H762.145C762.145 197.218 762.963 200.016 764.616 202.46L766.273 201.34ZM764.145 194.1C764.145 191.448 764.711 189.077 765.828 186.968L764.061 186.032C762.778 188.456 762.145 191.152 762.145 194.1H764.145ZM765.834 186.957C766.941 184.804 768.674 182.964 771.079 181.445L770.011 179.755C767.348 181.436 765.348 183.529 764.055 186.043L765.834 186.957ZM771.079 181.445C773.47 179.935 776.568 178.837 780.412 178.186L780.077 176.214C776.055 176.896 772.686 178.065 770.011 179.755L771.079 181.445ZM780.409 178.186L801.409 174.686L801.08 172.714L780.08 176.214L780.409 178.186ZM800.245 173.7V180.5H802.245V173.7H800.245ZM801.08 179.514L781.88 182.714L782.209 184.686L801.409 181.486L801.08 179.514ZM781.875 182.715C777.909 183.398 774.868 184.688 772.924 186.706L774.365 188.094C775.888 186.512 778.446 185.335 782.214 184.685L781.875 182.715ZM772.911 186.721C771.072 188.707 770.145 191.083 770.145 193.8H772.145C772.145 191.584 772.884 189.693 774.378 188.079L772.911 186.721ZM770.145 193.8C770.145 196.498 771.21 198.799 773.279 200.646L774.611 199.154C772.946 197.668 772.145 195.902 772.145 193.8H770.145ZM773.292 200.657C775.437 202.507 778.149 203.4 781.345 203.4V201.4C778.54 201.4 776.318 200.626 774.597 199.143L773.292 200.657ZM781.345 203.4C785.153 203.4 788.527 202.603 791.434 200.972L790.455 199.228C787.895 200.664 784.869 201.4 781.345 201.4V203.4ZM791.45 200.963C794.329 199.278 796.589 197.021 798.211 194.198L796.478 193.202C795.034 195.713 793.027 197.722 790.439 199.237L791.45 200.963ZM798.211 194.198C799.837 191.371 800.645 188.23 800.645 184.8H798.645C798.645 187.903 797.918 190.696 796.478 193.202L798.211 194.198ZM800.645 184.8V171.2H798.645V184.8H800.645ZM800.645 171.2C800.645 167.722 799.361 164.84 796.795 162.641L795.494 164.159C797.595 165.96 798.645 168.278 798.645 171.2H800.645ZM796.795 162.641C794.244 160.454 790.963 159.4 787.045 159.4V161.4C790.593 161.4 793.378 162.346 795.494 164.159L796.795 162.641ZM787.045 159.4C783.599 159.4 780.533 160.282 777.885 162.071L779.004 163.729C781.29 162.184 783.957 161.4 787.045 161.4V159.4ZM777.9 162.061C775.28 163.761 773.318 166.005 772.037 168.781L773.852 169.619C774.971 167.195 776.676 165.239 778.989 163.739L777.9 162.061ZM773.422 168.322L766.622 164.622L765.667 166.378L772.467 170.078L773.422 168.322ZM767.059 165.904C767.993 163.789 769.464 161.837 771.503 160.053L770.186 158.547C767.959 160.496 766.297 162.678 765.23 165.096L767.059 165.904ZM771.492 160.063C773.602 158.272 776.002 156.862 778.701 155.834L777.989 153.966C775.087 155.071 772.487 156.595 770.198 158.537L771.492 160.063ZM778.72 155.827C781.401 154.742 784.174 154.2 787.045 154.2V152.2C783.915 152.2 780.888 152.792 777.969 153.973L778.72 155.827ZM787.045 154.2C790.846 154.2 794.152 154.94 796.989 156.39L797.9 154.61C794.737 152.993 791.11 152.2 787.045 152.2V154.2ZM796.997 156.394C799.908 157.85 802.129 159.859 803.691 162.421L805.398 161.379C803.627 158.474 801.114 156.217 797.892 154.606L796.997 156.394ZM803.706 162.445C805.322 164.932 806.145 167.838 806.145 171.2H808.145C808.145 167.495 807.233 164.202 805.383 161.355L803.706 162.445ZM806.145 171.2V208H808.145V171.2H806.145ZM807.145 207H799.645V209H807.145V207ZM800.645 208V197.3H798.645V208H800.645ZM798.937 198.007L800.037 199.107L801.452 197.693L800.352 196.593L798.937 198.007ZM799.838 197.977C798.977 199.822 797.611 201.543 795.704 203.132L796.985 204.668C799.078 202.924 800.645 200.978 801.651 198.823L799.838 197.977ZM795.707 203.13C793.87 204.65 791.67 205.897 789.093 206.864L789.796 208.736C792.553 207.703 794.952 206.35 796.982 204.67L795.707 203.13ZM789.107 206.859C786.629 207.748 783.878 208.2 780.845 208.2V210.2C784.078 210.2 787.06 209.718 789.782 208.741L789.107 206.859Z" fill="black" mask="url(#path-1-outside-1_8_30)"/>
<mask id="path-3-outside-2_8_30" maskUnits="userSpaceOnUse" x="9" y="55" width="684" height="198" fill="black">
<rect fill="white" x="9" y="55" width="684" height="198"/>
<path d="M67.8 210.4C58.3333 210.4 49.7333 208.6 42 205C34.2667 201.4 27.7333 196.6 22.4 190.6C17.0667 184.467 13.2667 177.733 11 170.4L25.4 165C28.8667 175.133 34.2667 182.867 41.6 188.2C48.9333 193.4 57.6667 196 67.8 196C74.2 196 79.8 195 84.6 193C89.5333 190.867 93.3333 187.933 96 184.2C98.6667 180.467 100 176.133 100 171.2C100 163.867 98 158.2 94 154.2C90 150.2 84.2667 147.133 76.8 145L50 137C39.4667 133.933 31.3333 128.8 25.6 121.6C20 114.4 17.2 106.2 17.2 97C17.2 89.1333 19.1333 82.2 23 76.2C26.8667 70.0667 32.1333 65.2667 38.8 61.8C45.6 58.3333 53.2667 56.6 61.8 56.6C70.7333 56.6 78.7333 58.2667 85.8 61.6C93 64.8 99.0667 69.0667 104 74.4C108.933 79.7333 112.467 85.6667 114.6 92.2L100.6 97.8C97.4 89 92.4 82.3333 85.6 77.8C78.9333 73.2667 71.0667 71 62 71C56.2667 71 51.2 72 46.8 74C42.5333 76 39.2 78.8667 36.8 82.6C34.4 86.3333 33.2 90.7333 33.2 95.8C33.2 101.933 35.1333 107.467 39 112.4C42.8667 117.2 48.8 120.8 56.8 123.2L80.4 130.2C92.1333 133.667 101 138.667 107 145.2C113 151.733 116 159.933 116 169.8C116 177.8 113.933 184.867 109.8 191C105.8 197 100.133 201.733 92.8 205.2C85.6 208.667 77.2667 210.4 67.8 210.4ZM185.697 209.2C176.097 209.2 168.697 206.4 163.497 200.8C158.297 195.2 155.697 187.2 155.697 176.8V115.8H135.897V100.8H140.897C145.43 100.8 149.03 99.3333 151.697 96.4C154.364 93.3333 155.697 89.5333 155.697 85V76H170.697V100.8H194.297V115.8H170.697V176.8C170.697 180.4 171.23 183.6 172.297 186.4C173.364 189.067 175.164 191.2 177.697 192.8C180.364 194.4 183.897 195.2 188.297 195.2C189.364 195.2 190.63 195.133 192.097 195C193.564 194.867 194.83 194.733 195.897 194.6V208C194.297 208.4 192.497 208.667 190.497 208.8C188.497 209.067 186.897 209.2 185.697 209.2ZM260.236 210.4C252.769 210.4 245.969 208.667 239.836 205.2C233.703 201.6 228.836 196.667 225.236 190.4C221.769 184 220.036 176.667 220.036 168.4V100.8H235.036V166.6C235.036 172.333 236.169 177.4 238.436 181.8C240.836 186.067 244.103 189.4 248.236 191.8C252.503 194.2 257.369 195.4 262.836 195.4C268.303 195.4 273.169 194.2 277.436 191.8C281.703 189.267 285.036 185.733 287.436 181.2C289.836 176.533 291.036 171 291.036 164.6V100.8H306.036V208H291.036V187.2L294.436 188C291.903 194.933 287.569 200.4 281.436 204.4C275.303 208.4 268.236 210.4 260.236 210.4ZM385.284 210.4C375.284 210.4 366.284 208 358.284 203.2C350.284 198.267 343.951 191.6 339.284 183.2C334.751 174.667 332.484 165.067 332.484 154.4C332.484 143.6 334.751 134 339.284 125.6C343.951 117.2 350.218 110.6 358.084 105.8C366.084 100.867 375.151 98.4 385.284 98.4C394.484 98.4 402.684 100.4 409.884 104.4C417.084 108.4 422.751 113.8 426.884 120.6L424.484 124.8V56.6H439.484V208H424.484V184L426.884 186.2C423.151 193.933 417.551 199.933 410.084 204.2C402.751 208.333 394.484 210.4 385.284 210.4ZM386.084 195.4C393.284 195.4 399.751 193.6 405.484 190C411.351 186.4 415.951 181.533 419.284 175.4C422.751 169.133 424.484 162.133 424.484 154.4C424.484 146.667 422.751 139.733 419.284 133.6C415.951 127.333 411.351 122.4 405.484 118.8C399.751 115.2 393.284 113.4 386.084 113.4C379.018 113.4 372.618 115.2 366.884 118.8C361.151 122.4 356.618 127.267 353.284 133.4C350.084 139.533 348.484 146.533 348.484 154.4C348.484 162.133 350.084 169.133 353.284 175.4C356.618 181.533 361.084 186.4 366.684 190C372.418 193.6 378.884 195.4 386.084 195.4ZM472.483 252C470.349 252 468.149 251.8 465.883 251.4C463.749 251.133 461.616 250.6 459.483 249.8V235.8C460.816 235.933 462.483 236.133 464.483 236.4C466.616 236.8 468.749 237 470.883 237C477.416 237 482.416 235.6 485.883 232.8C489.349 230.133 492.749 224.933 496.083 217.2L502.883 201.2L502.483 214.4L457.083 100.8H473.283L510.483 194.6H506.283L543.283 100.8H559.883L510.883 221.6C508.749 226.8 506.016 231.733 502.683 236.4C499.483 241.067 495.416 244.8 490.483 247.6C485.549 250.533 479.549 252 472.483 252ZM579.709 208V59H595.709V146L592.109 144.2L667.109 59H687.109L626.909 127.4L627.709 116L690.709 208H671.509L620.709 134.6L595.709 163V208H579.709Z"/>
</mask>
<path d="M67.8 210.4C58.3333 210.4 49.7333 208.6 42 205C34.2667 201.4 27.7333 196.6 22.4 190.6C17.0667 184.467 13.2667 177.733 11 170.4L25.4 165C28.8667 175.133 34.2667 182.867 41.6 188.2C48.9333 193.4 57.6667 196 67.8 196C74.2 196 79.8 195 84.6 193C89.5333 190.867 93.3333 187.933 96 184.2C98.6667 180.467 100 176.133 100 171.2C100 163.867 98 158.2 94 154.2C90 150.2 84.2667 147.133 76.8 145L50 137C39.4667 133.933 31.3333 128.8 25.6 121.6C20 114.4 17.2 106.2 17.2 97C17.2 89.1333 19.1333 82.2 23 76.2C26.8667 70.0667 32.1333 65.2667 38.8 61.8C45.6 58.3333 53.2667 56.6 61.8 56.6C70.7333 56.6 78.7333 58.2667 85.8 61.6C93 64.8 99.0667 69.0667 104 74.4C108.933 79.7333 112.467 85.6667 114.6 92.2L100.6 97.8C97.4 89 92.4 82.3333 85.6 77.8C78.9333 73.2667 71.0667 71 62 71C56.2667 71 51.2 72 46.8 74C42.5333 76 39.2 78.8667 36.8 82.6C34.4 86.3333 33.2 90.7333 33.2 95.8C33.2 101.933 35.1333 107.467 39 112.4C42.8667 117.2 48.8 120.8 56.8 123.2L80.4 130.2C92.1333 133.667 101 138.667 107 145.2C113 151.733 116 159.933 116 169.8C116 177.8 113.933 184.867 109.8 191C105.8 197 100.133 201.733 92.8 205.2C85.6 208.667 77.2667 210.4 67.8 210.4ZM185.697 209.2C176.097 209.2 168.697 206.4 163.497 200.8C158.297 195.2 155.697 187.2 155.697 176.8V115.8H135.897V100.8H140.897C145.43 100.8 149.03 99.3333 151.697 96.4C154.364 93.3333 155.697 89.5333 155.697 85V76H170.697V100.8H194.297V115.8H170.697V176.8C170.697 180.4 171.23 183.6 172.297 186.4C173.364 189.067 175.164 191.2 177.697 192.8C180.364 194.4 183.897 195.2 188.297 195.2C189.364 195.2 190.63 195.133 192.097 195C193.564 194.867 194.83 194.733 195.897 194.6V208C194.297 208.4 192.497 208.667 190.497 208.8C188.497 209.067 186.897 209.2 185.697 209.2ZM260.236 210.4C252.769 210.4 245.969 208.667 239.836 205.2C233.703 201.6 228.836 196.667 225.236 190.4C221.769 184 220.036 176.667 220.036 168.4V100.8H235.036V166.6C235.036 172.333 236.169 177.4 238.436 181.8C240.836 186.067 244.103 189.4 248.236 191.8C252.503 194.2 257.369 195.4 262.836 195.4C268.303 195.4 273.169 194.2 277.436 191.8C281.703 189.267 285.036 185.733 287.436 181.2C289.836 176.533 291.036 171 291.036 164.6V100.8H306.036V208H291.036V187.2L294.436 188C291.903 194.933 287.569 200.4 281.436 204.4C275.303 208.4 268.236 210.4 260.236 210.4ZM385.284 210.4C375.284 210.4 366.284 208 358.284 203.2C350.284 198.267 343.951 191.6 339.284 183.2C334.751 174.667 332.484 165.067 332.484 154.4C332.484 143.6 334.751 134 339.284 125.6C343.951 117.2 350.218 110.6 358.084 105.8C366.084 100.867 375.151 98.4 385.284 98.4C394.484 98.4 402.684 100.4 409.884 104.4C417.084 108.4 422.751 113.8 426.884 120.6L424.484 124.8V56.6H439.484V208H424.484V184L426.884 186.2C423.151 193.933 417.551 199.933 410.084 204.2C402.751 208.333 394.484 210.4 385.284 210.4ZM386.084 195.4C393.284 195.4 399.751 193.6 405.484 190C411.351 186.4 415.951 181.533 419.284 175.4C422.751 169.133 424.484 162.133 424.484 154.4C424.484 146.667 422.751 139.733 419.284 133.6C415.951 127.333 411.351 122.4 405.484 118.8C399.751 115.2 393.284 113.4 386.084 113.4C379.018 113.4 372.618 115.2 366.884 118.8C361.151 122.4 356.618 127.267 353.284 133.4C350.084 139.533 348.484 146.533 348.484 154.4C348.484 162.133 350.084 169.133 353.284 175.4C356.618 181.533 361.084 186.4 366.684 190C372.418 193.6 378.884 195.4 386.084 195.4ZM472.483 252C470.349 252 468.149 251.8 465.883 251.4C463.749 251.133 461.616 250.6 459.483 249.8V235.8C460.816 235.933 462.483 236.133 464.483 236.4C466.616 236.8 468.749 237 470.883 237C477.416 237 482.416 235.6 485.883 232.8C489.349 230.133 492.749 224.933 496.083 217.2L502.883 201.2L502.483 214.4L457.083 100.8H473.283L510.483 194.6H506.283L543.283 100.8H559.883L510.883 221.6C508.749 226.8 506.016 231.733 502.683 236.4C499.483 241.067 495.416 244.8 490.483 247.6C485.549 250.533 479.549 252 472.483 252ZM579.709 208V59H595.709V146L592.109 144.2L667.109 59H687.109L626.909 127.4L627.709 116L690.709 208H671.509L620.709 134.6L595.709 163V208H579.709Z" fill="black"/>
<path d="M42 205L41.578 205.907L41.578 205.907L42 205ZM22.4 190.6L21.6454 191.256L21.6526 191.264L22.4 190.6ZM11 170.4L10.6489 169.464L9.76622 169.795L10.0446 170.695L11 170.4ZM25.4 165L26.3462 164.676L26.0129 163.702L25.0489 164.064L25.4 165ZM41.6 188.2L41.0118 189.009L41.0216 189.016L41.6 188.2ZM84.6 193L84.9847 193.923L84.9969 193.918L84.6 193ZM96 184.2L96.8137 184.781L96.8137 184.781L96 184.2ZM94 154.2L94.7071 153.493L94.7071 153.493L94 154.2ZM76.8 145L76.5139 145.958L76.5253 145.962L76.8 145ZM50 137L50.286 136.042L50.2795 136.04L50 137ZM25.6 121.6L24.8106 122.214L24.8177 122.223L25.6 121.6ZM23 76.2L23.8406 76.7417L23.8459 76.7333L23 76.2ZM38.8 61.8L38.3458 60.9091L38.3386 60.9128L38.8 61.8ZM85.8 61.6L85.3734 62.5044L85.3836 62.5092L85.3939 62.5138L85.8 61.6ZM104 74.4L104.734 73.7209L104.734 73.7209L104 74.4ZM114.6 92.2L114.971 93.1285L115.841 92.7804L115.551 91.8896L114.6 92.2ZM100.6 97.8L99.6602 98.1417L100.013 99.1118L100.971 98.7285L100.6 97.8ZM85.6 77.8L85.0377 78.627L85.0453 78.632L85.6 77.8ZM46.8 74L46.3862 73.0896L46.3756 73.0945L46.8 74ZM36.8 82.6L37.6412 83.1408L37.6412 83.1408L36.8 82.6ZM39 112.4L38.2129 113.017L38.2212 113.027L39 112.4ZM56.8 123.2L56.5127 124.158L56.5156 124.159L56.8 123.2ZM80.4 130.2L80.1156 131.159L80.1167 131.159L80.4 130.2ZM107 145.2L106.263 145.876L107 145.2ZM109.8 191L108.971 190.441L108.968 190.445L109.8 191ZM92.8 205.2L92.3726 204.296L92.3662 204.299L92.8 205.2ZM67.8 209.4C58.463 209.4 50.0093 207.625 42.422 204.093L41.578 205.907C49.4574 209.575 58.2037 211.4 67.8 211.4V209.4ZM42.422 204.093C34.8047 200.547 28.3844 195.827 23.1474 189.936L21.6526 191.264C27.0823 197.373 33.7286 202.253 41.578 205.907L42.422 204.093ZM23.1546 189.944C17.9071 183.909 14.1786 177.297 11.9554 170.105L10.0446 170.695C12.3548 178.169 16.2262 185.024 21.6454 191.256L23.1546 189.944ZM11.3511 171.336L25.7511 165.936L25.0489 164.064L10.6489 169.464L11.3511 171.336ZM24.4538 165.324C27.9747 175.616 33.4837 183.534 41.0118 189.009L42.1882 187.391C35.0497 182.2 29.7586 174.651 26.3462 164.676L24.4538 165.324ZM41.0216 189.016C48.5451 194.351 57.4869 197 67.8 197V195C57.8465 195 49.3216 192.449 42.1784 187.384L41.0216 189.016ZM67.8 197C74.3024 197 80.0381 195.984 84.9846 193.923L84.2154 192.077C79.5619 194.016 74.0976 195 67.8 195V197ZM84.9969 193.918C90.0682 191.725 94.0244 188.686 96.8137 184.781L95.1863 183.619C92.6423 187.18 88.9984 190.008 84.2031 192.082L84.9969 193.918ZM96.8137 184.781C99.6108 180.865 101 176.325 101 171.2H99C99 175.941 97.7225 180.068 95.1863 183.619L96.8137 184.781ZM101 171.2C101 163.683 98.9456 157.731 94.7071 153.493L93.2929 154.907C97.0544 158.669 99 164.05 99 171.2H101ZM94.7071 153.493C90.5504 149.336 84.6467 146.202 77.0747 144.038L76.5253 145.962C83.8866 148.065 89.4496 151.064 93.2929 154.907L94.7071 153.493ZM77.086 144.042L50.286 136.042L49.714 137.958L76.514 145.958L77.086 144.042ZM50.2795 136.04C39.9056 133.02 31.9637 127.986 26.3823 120.977L24.8177 122.223C30.7029 129.614 39.0277 134.847 49.7205 137.96L50.2795 136.04ZM26.3894 120.986C20.9271 113.963 18.2 105.98 18.2 97H16.2C16.2 106.42 19.0729 114.837 24.8106 122.214L26.3894 120.986ZM18.2 97C18.2 89.3051 20.0885 82.5639 23.8406 76.7417L22.1594 75.6583C18.1782 81.8361 16.2 88.9615 16.2 97H18.2ZM23.8459 76.7333C27.6145 70.7555 32.746 66.0752 39.2614 62.6872L38.3386 60.9128C31.5207 64.4581 26.1188 69.3778 22.1541 75.6667L23.8459 76.7333ZM39.2542 62.6909C45.8976 59.304 53.4057 57.6 61.8 57.6V55.6C53.1276 55.6 45.3024 57.3626 38.3458 60.9091L39.2542 62.6909ZM61.8 57.6C70.607 57.6 78.458 59.2425 85.3734 62.5044L86.2266 60.6956C79.0086 57.2909 70.8597 55.6 61.8 55.6V57.6ZM85.3939 62.5138C92.4803 65.6633 98.4324 69.8536 103.266 75.079L104.734 73.7209C99.701 68.2797 93.5197 63.9366 86.2061 60.6862L85.3939 62.5138ZM103.266 75.079C108.107 80.3127 111.563 86.1219 113.649 92.5104L115.551 91.8896C113.37 85.2114 109.76 79.154 104.734 73.7209L103.266 75.079ZM114.229 91.2715L100.229 96.8715L100.971 98.7285L114.971 93.1285L114.229 91.2715ZM101.54 97.4583C98.278 88.4883 93.1572 81.6363 86.1547 76.9679L85.0453 78.632C91.6428 83.0304 96.522 89.5117 99.6602 98.1417L101.54 97.4583ZM86.1623 76.9731C79.3096 72.3132 71.2413 70 62 70V72C70.892 72 78.5571 74.2201 85.0377 78.6269L86.1623 76.9731ZM62 70C56.1502 70 50.9381 71.0206 46.3862 73.0896L47.2138 74.9104C51.4619 72.9794 56.3832 72 62 72V70ZM46.3756 73.0945C41.9494 75.1693 38.467 78.1576 35.9588 82.0592L37.6412 83.1408C39.933 79.5757 43.1172 76.8307 47.2244 74.9055L46.3756 73.0945ZM35.9588 82.0592C33.441 85.9758 32.2 90.5694 32.2 95.8H34.2C34.2 90.8972 35.359 86.6908 37.6412 83.1408L35.9588 82.0592ZM32.2 95.8C32.2 102.162 34.2116 107.912 38.2129 113.017L39.7871 111.783C36.0551 107.022 34.2 101.704 34.2 95.8H32.2ZM38.2212 113.027C42.2524 118.032 48.3864 121.72 56.5127 124.158L57.0873 122.242C49.2136 119.88 43.4809 116.368 39.7788 111.773L38.2212 113.027ZM56.5156 124.159L80.1156 131.159L80.6844 129.241L57.0844 122.241L56.5156 124.159ZM80.1167 131.159C91.7393 134.593 100.424 139.518 106.263 145.876L107.737 144.524C101.576 137.815 92.5274 132.74 80.6833 129.241L80.1167 131.159ZM106.263 145.876C112.075 152.204 115 160.153 115 169.8H117C117 159.713 113.925 151.263 107.737 144.524L106.263 145.876ZM115 169.8C115 177.618 112.984 184.487 108.971 190.441L110.629 191.559C114.883 185.247 117 177.982 117 169.8H115ZM108.968 190.445C105.081 196.276 99.5629 200.897 92.3726 204.296L93.2274 206.104C100.704 202.57 106.519 197.724 110.632 191.555L108.968 190.445ZM92.3662 204.299C85.3243 207.69 77.144 209.4 67.8 209.4V211.4C77.3894 211.4 85.8757 209.644 93.2338 206.101L92.3662 204.299ZM163.497 200.8L164.23 200.12L164.23 200.12L163.497 200.8ZM155.697 115.8H156.697V114.8H155.697V115.8ZM135.897 115.8H134.897V116.8H135.897V115.8ZM135.897 100.8V99.8H134.897V100.8H135.897ZM151.697 96.4L152.437 97.0727L152.444 97.0645L152.451 97.0562L151.697 96.4ZM155.697 76V75H154.697V76H155.697ZM170.697 76H171.697V75H170.697V76ZM170.697 100.8H169.697V101.8H170.697V100.8ZM194.297 100.8H195.297V99.8H194.297V100.8ZM194.297 115.8V116.8H195.297V115.8H194.297ZM170.697 115.8V114.8H169.697V115.8H170.697ZM172.297 186.4L171.362 186.756L171.365 186.764L171.368 186.771L172.297 186.4ZM177.697 192.8L177.163 193.645L177.173 193.652L177.182 193.657L177.697 192.8ZM192.097 195L192.006 194.004L192.006 194.004L192.097 195ZM195.897 194.6H196.897V193.467L195.773 193.608L195.897 194.6ZM195.897 208L196.139 208.97L196.897 208.781V208H195.897ZM190.497 208.8L190.43 207.802L190.397 207.804L190.365 207.809L190.497 208.8ZM185.697 208.2C176.299 208.2 169.194 205.466 164.23 200.12L162.764 201.48C168.199 207.334 175.895 210.2 185.697 210.2V208.2ZM164.23 200.12C159.255 194.763 156.697 187.04 156.697 176.8H154.697C154.697 187.36 157.338 195.637 162.764 201.48L164.23 200.12ZM156.697 176.8V115.8H154.697V176.8H156.697ZM155.697 114.8H135.897V116.8H155.697V114.8ZM136.897 115.8V100.8H134.897V115.8H136.897ZM135.897 101.8H140.897V99.8H135.897V101.8ZM140.897 101.8C145.667 101.8 149.553 100.245 152.437 97.0727L150.957 95.7273C148.508 98.4213 145.193 99.8 140.897 99.8V101.8ZM152.451 97.0562C155.295 93.7862 156.697 89.7446 156.697 85H154.697C154.697 89.322 153.432 92.8805 150.942 95.7438L152.451 97.0562ZM156.697 85V76H154.697V85H156.697ZM155.697 77H170.697V75H155.697V77ZM169.697 76V100.8H171.697V76H169.697ZM170.697 101.8H194.297V99.8H170.697V101.8ZM193.297 100.8V115.8H195.297V100.8H193.297ZM194.297 114.8H170.697V116.8H194.297V114.8ZM169.697 115.8V176.8H171.697V115.8H169.697ZM169.697 176.8C169.697 180.498 170.245 183.822 171.362 186.756L173.231 186.044C172.216 183.378 171.697 180.302 171.697 176.8H169.697ZM171.368 186.771C172.517 189.643 174.46 191.938 177.163 193.645L178.231 191.955C175.867 190.462 174.21 188.491 173.225 186.029L171.368 186.771ZM177.182 193.657C180.056 195.382 183.787 196.2 188.297 196.2V194.2C184.007 194.2 180.671 193.418 178.211 191.943L177.182 193.657ZM188.297 196.2C189.403 196.2 190.701 196.131 192.187 195.996L192.006 194.004C190.559 194.136 189.324 194.2 188.297 194.2V196.2ZM192.187 195.996C193.661 195.862 194.94 195.727 196.021 195.592L195.773 193.608C194.721 193.739 193.466 193.871 192.006 194.004L192.187 195.996ZM194.897 194.6V208H196.897V194.6H194.897ZM195.654 207.03C194.123 207.413 192.383 207.672 190.43 207.802L190.563 209.798C192.611 209.661 194.471 209.387 196.139 208.97L195.654 207.03ZM190.365 207.809C188.383 208.073 186.833 208.2 185.697 208.2V210.2C186.961 210.2 188.61 210.06 190.629 209.791L190.365 207.809ZM239.836 205.2L239.33 206.062L239.337 206.067L239.344 206.071L239.836 205.2ZM225.236 190.4L224.357 190.876L224.363 190.887L224.369 190.898L225.236 190.4ZM220.036 100.8V99.8H219.036V100.8H220.036ZM235.036 100.8H236.036V99.8H235.036V100.8ZM238.436 181.8L237.547 182.258L237.555 182.274L237.564 182.29L238.436 181.8ZM248.236 191.8L247.734 192.665L247.746 192.672L248.236 191.8ZM277.436 191.8L277.926 192.672L277.936 192.666L277.946 192.66L277.436 191.8ZM287.436 181.2L288.32 181.668L288.325 181.657L287.436 181.2ZM291.036 100.8V99.8H290.036V100.8H291.036ZM306.036 100.8H307.036V99.8H306.036V100.8ZM306.036 208V209H307.036V208H306.036ZM291.036 208H290.036V209H291.036V208ZM291.036 187.2L291.265 186.227L290.036 185.937V187.2H291.036ZM294.436 188L295.375 188.343L295.762 187.285L294.665 187.027L294.436 188ZM281.436 204.4L280.89 203.562L280.89 203.562L281.436 204.4ZM260.236 209.4C252.931 209.4 246.302 207.706 240.328 204.329L239.344 206.071C245.636 209.627 252.608 211.4 260.236 211.4V209.4ZM240.342 204.338C234.361 200.827 229.618 196.02 226.103 189.902L224.369 190.898C228.054 197.313 233.044 202.373 239.33 206.062L240.342 204.338ZM226.115 189.924C222.738 183.689 221.036 176.523 221.036 168.4H219.036C219.036 176.81 220.801 184.311 224.357 190.876L226.115 189.924ZM221.036 168.4V100.8H219.036V168.4H221.036ZM220.036 101.8H235.036V99.8H220.036V101.8ZM234.036 100.8V166.6H236.036V100.8H234.036ZM234.036 166.6C234.036 172.467 235.197 177.695 237.547 182.258L239.325 181.342C237.142 177.105 236.036 172.199 236.036 166.6H234.036ZM237.564 182.29C240.05 186.709 243.442 190.173 247.734 192.665L248.738 190.935C244.763 188.627 241.622 185.425 239.308 181.31L237.564 182.29ZM247.746 192.672C252.179 195.165 257.218 196.4 262.836 196.4V194.4C257.521 194.4 252.826 193.235 248.726 190.928L247.746 192.672ZM262.836 196.4C268.454 196.4 273.493 195.165 277.926 192.672L276.946 190.928C272.846 193.235 268.151 194.4 262.836 194.4V196.4ZM277.946 192.66C282.377 190.029 285.837 186.358 288.32 181.668L286.552 180.732C284.235 185.109 281.028 188.504 276.925 190.94L277.946 192.66ZM288.325 181.657C290.812 176.821 292.036 171.125 292.036 164.6H290.036C290.036 170.875 288.86 176.245 286.547 180.743L288.325 181.657ZM292.036 164.6V100.8H290.036V164.6H292.036ZM291.036 101.8H306.036V99.8H291.036V101.8ZM305.036 100.8V208H307.036V100.8H305.036ZM306.036 207H291.036V209H306.036V207ZM292.036 208V187.2H290.036V208H292.036ZM290.807 188.173L294.207 188.973L294.665 187.027L291.265 186.227L290.807 188.173ZM293.497 187.657C291.037 194.389 286.84 199.681 280.89 203.562L281.982 205.238C288.298 201.119 292.768 195.478 295.375 188.343L293.497 187.657ZM280.89 203.562C274.934 207.447 268.061 209.4 260.236 209.4V211.4C268.411 211.4 275.671 209.353 281.982 205.238L280.89 203.562ZM358.284 203.2L357.759 204.051L357.77 204.057L358.284 203.2ZM339.284 183.2L338.401 183.669L338.406 183.677L338.41 183.686L339.284 183.2ZM339.284 125.6L338.41 125.114L338.404 125.125L339.284 125.6ZM358.084 105.8L358.605 106.654L358.609 106.651L358.084 105.8ZM409.884 104.4L409.399 105.274L409.399 105.274L409.884 104.4ZM426.884 120.6L427.753 121.096L428.045 120.584L427.739 120.081L426.884 120.6ZM424.484 124.8H423.484V128.566L425.353 125.296L424.484 124.8ZM424.484 56.6V55.6H423.484V56.6H424.484ZM439.484 56.6H440.484V55.6H439.484V56.6ZM439.484 208V209H440.484V208H439.484ZM424.484 208H423.484V209H424.484V208ZM424.484 184L425.16 183.263L423.484 181.727V184H424.484ZM426.884 186.2L427.785 186.635L428.108 185.965L427.56 185.463L426.884 186.2ZM410.084 204.2L410.575 205.071L410.581 205.068L410.084 204.2ZM405.484 190L404.961 189.148L404.953 189.153L405.484 190ZM419.284 175.4L418.409 174.916L418.406 174.922L419.284 175.4ZM419.284 133.6L418.402 134.07L418.408 134.081L418.414 134.092L419.284 133.6ZM405.484 118.8L404.953 119.647L404.961 119.652L405.484 118.8ZM366.884 118.8L367.416 119.647L367.416 119.647L366.884 118.8ZM353.284 133.4L352.406 132.922L352.402 132.93L352.398 132.937L353.284 133.4ZM353.284 175.4L352.394 175.855L352.4 175.866L352.406 175.878L353.284 175.4ZM366.684 190L366.144 190.841L366.153 190.847L366.684 190ZM385.284 209.4C375.452 209.4 366.632 207.043 358.799 202.343L357.77 204.057C365.936 208.957 375.117 211.4 385.284 211.4V209.4ZM358.809 202.349C350.958 197.507 344.744 190.968 340.159 182.714L338.41 183.686C343.158 192.232 349.61 199.026 357.759 204.051L358.809 202.349ZM340.167 182.731C335.719 174.357 333.484 164.92 333.484 154.4H331.484C331.484 165.213 333.783 174.977 338.401 183.669L340.167 182.731ZM333.484 154.4C333.484 143.744 335.72 134.311 340.164 126.075L338.404 125.125C333.782 133.689 331.484 143.456 331.484 154.4H333.484ZM340.159 126.086C344.745 117.83 350.893 111.36 358.605 106.654L357.564 104.946C349.543 109.84 343.157 116.57 338.41 125.114L340.159 126.086ZM358.609 106.651C366.439 101.823 375.321 99.4 385.284 99.4V97.4C374.981 97.4 365.73 99.9106 357.559 104.949L358.609 106.651ZM385.284 99.4C394.335 99.4 402.364 101.366 409.399 105.274L410.37 103.526C403.005 99.434 394.634 97.4 385.284 97.4V99.4ZM409.399 105.274C416.453 109.193 421.99 114.473 426.03 121.119L427.739 120.081C423.512 113.127 417.716 107.607 410.37 103.526L409.399 105.274ZM426.016 120.104L423.616 124.304L425.353 125.296L427.753 121.096L426.016 120.104ZM425.484 124.8V56.6H423.484V124.8H425.484ZM424.484 57.6H439.484V55.6H424.484V57.6ZM438.484 56.6V208H440.484V56.6H438.484ZM439.484 207H424.484V209H439.484V207ZM425.484 208V184H423.484V208H425.484ZM423.809 184.737L426.209 186.937L427.56 185.463L425.16 183.263L423.809 184.737ZM425.984 185.765C422.339 193.316 416.88 199.165 409.588 203.332L410.581 205.068C418.222 200.701 423.964 194.55 427.785 186.635L425.984 185.765ZM409.593 203.329C402.424 207.37 394.329 209.4 385.284 209.4V211.4C394.64 211.4 403.079 209.297 410.575 205.071L409.593 203.329ZM386.084 196.4C393.46 196.4 400.113 194.553 406.016 190.847L404.953 189.153C399.389 192.647 393.109 194.4 386.084 194.4V196.4ZM406.007 190.852C412.026 187.159 416.747 182.162 420.163 175.878L418.406 174.922C415.155 180.904 410.677 185.641 404.961 189.148L406.007 190.852ZM420.159 175.884C423.715 169.458 425.484 162.289 425.484 154.4H423.484C423.484 161.978 421.788 168.809 418.409 174.916L420.159 175.884ZM425.484 154.4C425.484 146.512 423.715 139.406 420.155 133.108L418.414 134.092C421.788 140.061 423.484 146.822 423.484 154.4H425.484ZM420.167 133.13C416.753 126.711 412.031 121.644 406.007 117.948L404.961 119.652C410.671 123.156 415.149 127.955 418.402 134.07L420.167 133.13ZM406.016 117.953C400.113 114.247 393.46 112.4 386.084 112.4V114.4C393.109 114.4 399.389 116.153 404.953 119.647L406.016 117.953ZM386.084 112.4C378.838 112.4 372.252 114.249 366.353 117.953L367.416 119.647C372.983 116.151 379.197 114.4 386.084 114.4V112.4ZM366.353 117.953C360.469 121.647 355.818 126.643 352.406 132.922L354.163 133.878C357.417 127.89 361.833 123.153 367.416 119.647L366.353 117.953ZM352.398 132.937C349.114 139.232 347.484 146.395 347.484 154.4H349.484C349.484 146.672 351.055 139.835 354.171 133.863L352.398 132.937ZM347.484 154.4C347.484 162.276 349.115 169.434 352.394 175.855L354.175 174.945C351.054 168.833 349.484 161.991 349.484 154.4H347.484ZM352.406 175.878C355.815 182.151 360.395 187.146 366.144 190.841L367.225 189.159C361.773 185.654 357.42 180.916 354.163 174.922L352.406 175.878ZM366.153 190.847C372.056 194.553 378.709 196.4 386.084 196.4V194.4C379.06 194.4 372.78 192.647 367.216 189.153L366.153 190.847ZM465.883 251.4L466.057 250.415L466.032 250.411L466.007 250.408L465.883 251.4ZM459.483 249.8H458.483V250.493L459.132 250.736L459.483 249.8ZM459.483 235.8L459.582 234.805L458.483 234.695V235.8H459.483ZM464.483 236.4L464.667 235.417L464.641 235.412L464.615 235.409L464.483 236.4ZM485.883 232.8L485.273 232.007L485.264 232.015L485.254 232.022L485.883 232.8ZM496.083 217.2L497.001 217.596L497.003 217.591L496.083 217.2ZM502.883 201.2L503.882 201.23L501.962 200.809L502.883 201.2ZM502.483 214.4L501.554 214.771L503.482 214.43L502.483 214.4ZM457.083 100.8V99.8H455.606L456.154 101.171L457.083 100.8ZM473.283 100.8L474.212 100.431L473.962 99.8H473.283V100.8ZM510.483 194.6V195.6H511.955L511.412 194.231L510.483 194.6ZM506.283 194.6L505.353 194.233L504.813 195.6H506.283V194.6ZM543.283 100.8V99.8H542.602L542.353 100.433L543.283 100.8ZM559.883 100.8L560.809 101.176L561.368 99.8H559.883V100.8ZM510.883 221.6L511.808 221.98L511.809 221.976L510.883 221.6ZM502.683 236.4L501.869 235.819L501.864 235.827L501.858 235.834L502.683 236.4ZM490.483 247.6L489.989 246.73L489.98 246.735L489.972 246.74L490.483 247.6ZM472.483 251C470.412 251 468.27 250.806 466.057 250.415L465.709 252.385C468.029 252.794 470.287 253 472.483 253V251ZM466.007 250.408C463.956 250.151 461.898 249.638 459.834 248.864L459.132 250.736C461.334 251.562 463.543 252.115 465.759 252.392L466.007 250.408ZM460.483 249.8V235.8H458.483V249.8H460.483ZM459.383 236.795C460.702 236.927 462.357 237.125 464.351 237.391L464.615 235.409C462.609 235.141 460.931 234.94 459.582 234.805L459.383 236.795ZM464.299 237.383C466.492 237.794 468.687 238 470.883 238V236C468.812 236 466.741 235.806 464.667 235.417L464.299 237.383ZM470.883 238C477.542 238 482.8 236.575 486.511 233.578L485.254 232.022C482.032 234.625 477.291 236 470.883 236V238ZM486.493 233.593C490.169 230.764 493.652 225.366 497.001 217.596L495.164 216.804C491.847 224.501 488.53 229.502 485.273 232.007L486.493 233.593ZM497.003 217.591L503.803 201.591L501.962 200.809L495.162 216.809L497.003 217.591ZM501.883 201.17L501.483 214.37L503.482 214.43L503.882 201.23L501.883 201.17ZM503.411 214.029L458.011 100.429L456.154 101.171L501.554 214.771L503.411 214.029ZM457.083 101.8H473.283V99.8H457.083V101.8ZM472.353 101.169L509.553 194.969L511.412 194.231L474.212 100.431L472.353 101.169ZM510.483 193.6H506.283V195.6H510.483V193.6ZM507.213 194.967L544.213 101.167L542.353 100.433L505.353 194.233L507.213 194.967ZM543.283 101.8H559.883V99.8H543.283V101.8ZM558.956 100.424L509.956 221.224L511.809 221.976L560.809 101.176L558.956 100.424ZM509.958 221.22C507.854 226.348 505.159 231.214 501.869 235.819L503.497 236.981C506.874 232.253 509.645 227.252 511.808 221.98L509.958 221.22ZM501.858 235.834C498.744 240.376 494.791 244.005 489.989 246.73L490.976 248.47C496.041 245.595 500.221 241.758 503.508 236.966L501.858 235.834ZM489.972 246.74C485.225 249.563 479.411 251 472.483 251V253C479.688 253 485.874 251.504 490.994 248.46L489.972 246.74ZM579.709 208H578.709V209H579.709V208ZM579.709 59V58H578.709V59H579.709ZM595.709 59H596.709V58H595.709V59ZM595.709 146L595.262 146.894L596.709 147.618V146H595.709ZM592.109 144.2L591.359 143.539L590.501 144.514L591.662 145.094L592.109 144.2ZM667.109 59V58H666.657L666.359 58.3392L667.109 59ZM687.109 59L687.86 59.6607L689.322 58H687.109V59ZM626.909 127.4L625.912 127.33L625.705 130.282L627.66 128.061L626.909 127.4ZM627.709 116L628.534 115.435L626.913 113.067L626.712 115.93L627.709 116ZM690.709 208V209H692.606L691.534 207.435L690.709 208ZM671.509 208L670.687 208.569L670.985 209H671.509V208ZM620.709 134.6L621.532 134.031L620.804 132.979L619.959 133.939L620.709 134.6ZM595.709 163L594.959 162.339L594.709 162.623V163H595.709ZM595.709 208V209H596.709V208H595.709ZM580.709 208V59H578.709V208H580.709ZM579.709 60H595.709V58H579.709V60ZM594.709 59V146H596.709V59H594.709ZM596.157 145.106L592.557 143.306L591.662 145.094L595.262 146.894L596.157 145.106ZM592.86 144.861L667.86 59.6607L666.359 58.3392L591.359 143.539L592.86 144.861ZM667.109 60H687.109V58H667.109V60ZM686.359 58.3393L626.159 126.739L627.66 128.061L687.86 59.6607L686.359 58.3393ZM627.907 127.47L628.707 116.07L626.712 115.93L625.912 127.33L627.907 127.47ZM626.884 116.565L689.884 208.565L691.534 207.435L628.534 115.435L626.884 116.565ZM690.709 207H671.509V209H690.709V207ZM672.332 207.431L621.532 134.031L619.887 135.169L670.687 208.569L672.332 207.431ZM619.959 133.939L594.959 162.339L596.46 163.661L621.46 135.261L619.959 133.939ZM594.709 163V208H596.709V163H594.709ZM595.709 207H579.709V209H595.709V207Z" fill="black" mask="url(#path-3-outside-2_8_30)"/>
</svg>
